<svg width="156" height="130" xmlns="http://www.w3.org/2000/svg" xmlns:xlink="http://www.w3.org/1999/xlink"><svg viewBox="-1 -1 26 26" width="26" height="26" x="26" xmlns="http://www.w3.org/2000/svg"><path d="M20.496 9.026c-2.183-.93-5.116-1.53-8.25-1.695-.5-.03-.987-.04-1.45-.04 2.318-2.83 4.802-4.73 6.437-4.79.322-.013.595.055.813.196.706.458.905 1.768.545 3.59-.04.25.12.493.36.54.25.05.49-.11.54-.36.45-2.28.12-3.846-.94-4.538-.38-.248-.84-.365-1.35-.346-2.05.077-4.94 2.3-7.59 5.72-1.154.035-2.24.13-3.232.287-.646-2.897-.39-4.977.594-5.477.138-.073.285-.11.457-.124.697-.054 1.66.395 2.71 1.27.194.16.486.14.646-.06a.458.458 0 0 0-.06-.645C9.466 1.51 8.304 1 7.354 1.07a2.244 2.244 0 0 0-.803.22c-1.19.607-1.67 2.327-1.37 4.838.07.52.16 1.062.29 1.62C2.19 8.404.1 9.718.01 11.372c-.06 1.17.865 2.284 2.68 3.222a.46.46 0 1 0 .42-.816C1.66 13.032.88 12.19.927 11.42c.05-1.08 1.772-2.19 4.76-2.78.27.994.62 2.032 1.05 3.09-1.018 1.888-1.756 3.747-2.137 5.4-.56 2.465-.26 4.22.86 4.948.36.234.78.35 1.247.35.935 0 2.067-.46 3.347-1.372a.458.458 0 1 0-.53-.746c-1.544 1.103-2.844 1.472-3.562 1.003-.76-.495-.926-1.943-.46-3.976.32-1.386.907-2.93 1.708-4.52.2.438.41.876.63 1.313 1.425 2.796 3.17 5.227 4.91 6.845 1.386 1.29 2.674 1.963 3.735 1.963.35 0 .68-.075.976-.223 1.145-.585 1.64-2.21 1.398-4.575-.224-2.213-1.06-4.91-2.354-7.6a.46.46 0 1 0-.83.396c2.69 5.602 2.88 10.19 1.37 10.96-1.59.813-5.424-2.355-8.39-8.18-.34-.655-.637-1.3-.9-1.93.34-.608.7-1.22 1.095-1.83.395-.604.806-1.188 1.224-1.745h.394c.54 0 1.126.01 1.734.048 6.53.343 10.975 2.56 10.884 4.334-.04.765-.924 1.538-2.425 2.12a.464.464 0 0 0-.26.596.455.455 0 0 0 .593.262c1.905-.74 2.95-1.756 3.01-2.93.07-1.33-1.17-2.61-3.5-3.6v-.01zM8.08 9.45c-.27.415-.52.827-.764 1.244a23.66 23.66 0 0 1-.723-2.215c.713-.11 1.485-.19 2.31-.24-.28.39-.554.794-.82 1.21v-.01z"/><circle cx="12.005" cy="12" r="1.375"/></svg><svg viewBox="-1 -1 26 26" width="26" height="26" x="78" y="78" xmlns="http://www.w3.org/2000/svg"><path d="M6.938 4.503c.702 0 1.34.06 1.92.188.577.13 1.07.33 1.485.61.41.28.733.65.96 1.12.225.47.34 1.05.34 1.73 0 .74-.17 1.36-.507 1.86-.338.5-.837.9-1.502 1.22.906.26 1.576.72 2.022 1.37.448.66.665 1.45.665 2.36 0 .75-.13 1.39-.41 1.93-.28.55-.67 1-1.16 1.35-.48.348-1.05.6-1.67.767a7.316 7.316 0 0 1-1.91.254H0V4.51h6.938v-.007zM16.94 16.665c.44.428 1.073.643 1.894.643.59 0 1.1-.148 1.53-.447.424-.29.68-.61.78-.94h2.588c-.403 1.28-1.048 2.2-1.9 2.75-.85.56-1.884.83-3.08.83-.837 0-1.584-.13-2.272-.4a4.948 4.948 0 0 1-1.72-1.14 5.1 5.1 0 0 1-1.077-1.77c-.253-.69-.373-1.45-.373-2.27 0-.803.135-1.54.403-2.23.27-.7.644-1.28 1.12-1.79.495-.51 1.063-.895 1.736-1.194s1.4-.433 2.22-.433c.91 0 1.69.164 2.38.523a4.8 4.8 0 0 1 1.66 1.4c.44.586.75 1.26.94 2.02.19.75.25 1.54.21 2.38h-7.69c0 .84.28 1.632.71 2.065l-.08.03zm-10.24.05c.317 0 .62-.03.906-.093.29-.06.548-.165.763-.3.21-.135.39-.328.52-.583.13-.24.19-.57.19-.96 0-.75-.22-1.29-.64-1.62-.43-.32-.99-.48-1.69-.48H3.24v4.05H6.7v-.03zm13.607-5.65c-.352-.385-.94-.592-1.657-.592-.468 0-.855.074-1.166.238-.302.15-.55.35-.74.59-.19.24-.317.48-.392.75-.075.26-.12.5-.135.71h4.762c-.07-.75-.33-1.3-.68-1.69v.01zM6.52 10.45c.574 0 1.05-.134 1.425-.412.374-.27.554-.72.554-1.338 0-.344-.07-.625-.18-.846-.13-.22-.3-.39-.5-.512-.21-.124-.45-.21-.72-.257a4.426 4.426 0 0 0-.84-.074H3.23v3.44h3.29zm9.098-4.958h5.968v1.454h-5.968V5.48v.01z"/></svg><svg viewBox="-1 -1 26 26" width="26" height="26" y="26" xmlns="http://www.w3.org/2000/svg"><path d="M20 0H4a4.01 4.01 0 0 0-4 4v16c0 2.2 1.8 4 4 4h16c2.2 0 4-1.8 4-4V4c0-2.2-1.8-4-4-4zm-2.187 16.855c-.2.482-.517.907-.923 1.234-.42.34-.952.62-1.607.82-.654.203-1.432.305-2.333.305H6.518v-14h6.802c1.258 0 2.266.283 3.02.86.76.58 1.138 1.444 1.138 2.61 0 .705-.172 1.31-.518 1.81-.344.497-.84.886-1.48 1.156v.046c.854.18 1.515.585 1.95 1.215s.658 1.426.658 2.387c0 .538-.104 1.05-.3 1.528l.025.027zm-2.776-3.45c-.41-.375-.986-.558-1.73-.558H8.985v4.368h4.334c.74 0 1.32-.192 1.73-.58.41-.385.62-.934.62-1.64-.007-.69-.21-1.224-.62-1.59h-.017zm-.6-2.823c.396-.336.59-.817.59-1.444 0-.704-.175-1.204-.53-1.49-.352-.285-.86-.433-1.528-.433h-4v3.863h4c.583 0 1.08-.17 1.464-.496z"/></svg><svg viewBox="-1 -1 26 26" width="26" height="26" x="26" y="26" xmlns="http://www.w3.org/2000/svg"><path d="M1.5 0h21l-1.91 21.563L11.977 24l-8.565-2.438L1.5 0zm17.09 4.413L5.41 4.41l.213 2.622 10.125.002-.255 2.716h-6.64l.24 2.573h6.182l-.366 3.523-2.91.804-2.956-.81-.188-2.11h-2.61l.29 3.855L12 19.288l5.373-1.53L18.59 4.414z"/></svg><svg viewBox="-1 -1 26 26" width="26" height="26" x="52" xmlns="http://www.w3.org/2000/svg"><path d="M.836 19.365H.832V16.38h2.985v2.985H7.38V14.73h4.635v4.62c4.927-.006 8.73-4.883 6.852-10.066a6.956 6.956 0 0 0-4.15-4.146C9.527 3.255 4.647 7.068 4.647 12H0C0 4.144 7.59-1.976 15.824.595a11.602 11.602 0 0 1 7.58 7.58C25.974 16.41 19.858 24 12 24v-4.635H7.377v3.56h-3.56v-3.56H.833h.002z"/></svg><svg viewBox="-1 -1 26 26" width="26" height="26" x="52" y="26" xmlns="http://www.w3.org/2000/svg"><path d="M4.82 17.275c-.684 0-1.304-.56-1.304-1.24s.56-1.243 1.305-1.243c.748 0 1.31.56 1.31 1.242s-.622 1.24-1.305 1.24zm16.012-6.763c-.135-.992-.75-1.8-1.56-2.42l-.315-.25-.254.31c-.494.56-.69 1.553-.63 2.295.06.562.24 1.12.554 1.554-.254.13-.568.25-.81.377a5.29 5.29 0 0 1-1.68.25H.097l-.06.37a6.98 6.98 0 0 0 .562 3.54l.244.435v.06c1.5 2.483 4.17 3.6 7.078 3.6 5.594 0 10.182-2.42 12.357-7.633 1.425.062 2.864-.31 3.54-1.676l.18-.31-.3-.187c-.81-.494-1.92-.56-2.85-.31l-.018.002zm-8.008-.992h-2.428v2.42h2.43V9.518l-.002.003zm0-3.043h-2.428v2.42h2.43V6.48l-.002-.003zm0-3.104h-2.428v2.42h2.43v-2.42h-.002zm2.97 6.147H13.38v2.42h2.42V9.518l-.007.003zm-8.998 0H4.383v2.42h2.422V9.518l-.01.003zm3.03 0h-2.4v2.42H9.84V9.518l-.015.003zm-6.03 0H1.4v2.42h2.428V9.518l-.03.003zm6.03-3.043h-2.4v2.42H9.84V6.48l-.015-.003zm-3.045 0H4.387v2.42H6.8V6.48l-.016-.003z"/></svg><svg viewBox="-1 -1 26 26" width="26" height="26" y="52" xmlns="http://www.w3.org/2000/svg"><path d="M23.546 10.93L13.067.452a1.55 1.55 0 0 0-2.188 0L8.708 2.627l2.76 2.76a1.838 1.838 0 0 1 2.327 2.341l2.658 2.66a1.838 1.838 0 0 1 1.9 3.039 1.837 1.837 0 0 1-2.6 0 1.846 1.846 0 0 1-.404-1.996L12.86 8.955v6.525c.176.086.342.203.488.348a1.848 1.848 0 0 1 0 2.6 1.844 1.844 0 0 1-2.609 0 1.834 1.834 0 0 1 0-2.598c.182-.18.387-.316.605-.406V8.835a1.834 1.834 0 0 1-.996-2.41L7.636 3.7.45 10.881c-.6.605-.6 1.584 0 2.189l10.48 10.477a1.545 1.545 0 0 0 2.186 0l10.43-10.43a1.544 1.544 0 0 0 0-2.187"/></svg><svg viewBox="-1 -1 26 26" width="26" height="26" x="26" y="52" xmlns="http://www.w3.org/2000/svg"><path d="M12 .297c-6.63 0-12 5.373-12 12 0 5.303 3.438 9.8 8.205 11.385.6.113.82-.258.82-.577 0-.285-.01-1.04-.015-2.04-3.338.724-4.042-1.61-4.042-1.61C4.422 18.07 3.633 17.7 3.633 17.7c-1.087-.744.084-.729.084-.729 1.205.084 1.838 1.236 1.838 1.236 1.07 1.835 2.809 1.305 3.495.998.108-.776.417-1.305.76-1.605-2.665-.3-5.466-1.332-5.466-5.93 0-1.31.465-2.38 1.235-3.22-.135-.303-.54-1.523.105-3.176 0 0 1.005-.322 3.3 1.23.96-.267 1.98-.399 3-.405 1.02.006 2.04.138 3 .405 2.28-1.552 3.285-1.23 3.285-1.23.645 1.653.24 2.873.12 3.176.765.84 1.23 1.91 1.23 3.22 0 4.61-2.805 5.625-5.475 5.92.42.36.81 1.096.81 2.22 0 1.606-.015 2.896-.015 3.286 0 .315.21.69.825.57C20.565 22.092 24 17.592 24 12.297c0-6.627-5.373-12-12-12"/></svg><svg viewBox="-1 -1 26 26" width="26" height="26" x="52" y="52" xmlns="http://www.w3.org/2000/svg"><path d="M23.955 13.587l-1.342-4.135-2.664-8.189a.455.455 0 0 0-.867 0L16.418 9.45H7.582L4.919 1.263C4.783.84 4.185.84 4.05 1.26L1.386 9.449.044 13.587a.924.924 0 0 0 .331 1.023L12 23.054l11.625-8.443a.92.92 0 0 0 .33-1.024"/></svg><svg viewBox="-1 -1 26 26" width="26" height="26" x="78" xmlns="http://www.w3.org/2000/svg"><path d="M15.156 19.432l.636-1.084s-1.444.591-3.86.591c-2.418 0-3.84-.568-3.84-.568l.711 1.183.252 3.729c0 .403 1.314.718 2.936.718 1.623 0 2.938-.314 2.938-.718l.229-3.835v-.016zm.615-7.046c-.769.046-1.153.903-1.539 1.805-.143.33-.63 1.737-.948 1.563-.318-.173.413-1.329.619-2.017-.237.174-1.105.849-1.329.215-.358.314-1.129.48-1.042-.329-.191.345-.621.823-1.139.614-.673-.255.395-2.411.66-2.307.266.121-.053.6-.136.794-.186.419-.398.958-.255 1.063.24.194.904-.703.919-.719.124-.165.479-1.229.763-1.107.285.134-.711 1.541-.34 1.826.076.06.383-.03.569-.239.12-.12.078-.42.479-1.378.404-.959.764-2.156 1.039-2.066s.049.703-.051.943c-.464 1.078-1.268 2.844-.89 2.71.374-.135.569-.135.943-.569.374-.434.345-1.152.599-1.137.24.014.21.254.15.418.24-.27 1.152-.868 1.363-.284.254.688-1.304 1.692-.914 1.632.375-.045.988-.434 1.258-.793l.719-6.5s-.734.6-5.361.6-5.284-.584-5.284-.584l.613 5.93c.33-.928 1.108-2.814 2.322-2.74.554.03 1.303 1.109.658 1.139-.27.015-.3-.539-.614-.614-.239-.046-.554.135-.763.345-.404.404-1.304 2.006-1.184 2.801.15 1.018 1.407-.346 1.617-.75.149-.283.254-1.138.568-1.048.33.09-.029.974-.27 1.737-.27.869-.404 1.781-.732 1.676-.33-.104.209-1.227.178-1.422-.313.299-.883 1.02-1.631.659l.374 3.699s1.019.793 4.073.793 4.118-.793 4.118-.793l.479-4.283c-.389.39-1.617 1.063-1.692.3-.059-.614 1.333-1.498.974-1.514l.06-.069zM17.346.669l-2.659 2.8-.486 1.901c1.881.12 3.189.386 3.189.694 0 .419-2.414.757-5.391.757s-5.39-.343-5.39-.763c0-.419 2.414-.764 5.391-.764.423 0 .844 0 1.264.016l.561-2.276L16.65.039c.068-.09.28-.015.474.15.194.149.299.344.239.434v.03l-.017.016zm-3.834 5.795s-.523 0-.61-.08a.14.14 0 0 1-.036-.09c0-.058.039-.091.09-.11l.044.075c-.021.006-.029.015-.033.023 0 .041.314.069.555.066.239-.003.531-.023.533-.064 0-.012-.023-.023-.061-.033l.045-.072c.063.02.117.058.117.121 0 .11-.141.128-.23.141-.107.015-.412.023-.412.023h-.002z"/></svg><svg viewBox="-1 -1 26 26" width="26" height="26" x="78" y="26" xmlns="http://www.w3.org/2000/svg"><path d="M1.5 0h21l-1.91 21.563L11.977 24l-8.564-2.438L1.5 0zm7.031 9.75l-.232-2.718 10.059.003.23-2.622L5.412 4.41l.698 8.01h9.126l-.326 3.426-2.91.804-2.955-.81-.188-2.11H6.248l.33 4.171L12 19.351l5.379-1.443.744-8.157H8.531z"/></svg><svg viewBox="-1 -1 26 26" width="26" height="26" x="78" y="52" xmlns="http://www.w3.org/2000/svg"><path d="M0 0h24v24H0V0zm22.034 18.276c-.175-1.095-.888-2.015-3.003-2.873-.736-.345-1.554-.585-1.797-1.14-.091-.33-.105-.51-.046-.705.15-.646.915-.84 1.515-.66.39.12.75.42.976.9 1.034-.676 1.034-.676 1.755-1.125-.27-.42-.404-.601-.586-.78-.63-.705-1.469-1.065-2.834-1.034l-.705.089c-.676.165-1.32.525-1.71 1.005-1.14 1.291-.811 3.541.569 4.471 1.365 1.02 3.361 1.244 3.616 2.205.24 1.17-.87 1.545-1.966 1.41-.811-.18-1.26-.586-1.755-1.336l-1.83 1.051c.21.48.45.689.81 1.109 1.74 1.756 6.09 1.666 6.871-1.004.029-.09.24-.705.074-1.65l.046.067zm-8.983-7.245h-2.248c0 1.938-.009 3.864-.009 5.805 0 1.232.063 2.363-.138 2.711-.33.689-1.18.601-1.566.48-.396-.196-.597-.466-.83-.855-.063-.105-.11-.196-.127-.196l-1.825 1.125c.305.63.75 1.172 1.324 1.517.855.51 2.004.675 3.207.405.783-.226 1.458-.691 1.811-1.411.51-.93.402-2.07.397-3.346.012-2.054 0-4.109 0-6.179l.004-.056z"/></svg><svg viewBox="-1 -1 26 26" width="26" height="26" y="78" xmlns="http://www.w3.org/2000/svg"><path d="M1.534 5.874c-2.123 3.05-1.86 7.017-.237 10.256.037.079.078.154.118.229.023.052.049.1.077.149.013.028.031.057.047.083.026.052.054.102.081.152l.157.265c.029.049.057.097.09.146.055.094.12.187.177.281.026.039.05.078.079.117a6.36 6.36 0 0 0 .31.444c.078.107.156.211.24.315.027.038.057.076.085.114l.221.269c.027.031.054.067.083.099.098.118.202.233.306.349 0 .002.003.004.005.007a3.13 3.13 0 0 0 .424.44c.08.082.16.164.245.244l.101.097c.111.104.222.208.339.308.002 0 .003.002.005.003l.057.05c.102.089.205.178.31.26l.125.105c.085.068.173.133.26.2l.136.104c.093.07.192.139.287.207.035.025.07.05.106.073l.029.023.281.185.12.08c.147.094.293.183.438.271.042.021.084.044.123.068.108.062.22.125.329.183.06.034.122.063.184.094.075.042.153.083.233.125a.324.324 0 0 1 .056.023c.033.015.064.031.096.047.12.06.245.117.375.174.024.01.05.02.076.034.144.063.288.123.437.182.034.01.07.027.105.04.135.051.274.103.411.152l.05.018c.153.052.304.102.459.15.036.01.073.023.111.033.159.048.313.105.473.136 10.26 1.87 13.242-6.169 13.242-6.169-2.505 3.262-6.95 4.122-11.16 3.165-.156-.036-.312-.086-.469-.132a13.522 13.522 0 0 1-.567-.181l-.062-.024c-.136-.046-.267-.097-.4-.148a1.613 1.613 0 0 0-.11-.041c-.147-.059-.29-.12-.432-.183-.031-.01-.057-.024-.088-.036a23.41 23.41 0 0 1-.361-.17 1.483 1.483 0 0 1-.106-.052c-.094-.044-.188-.094-.28-.142a3.942 3.942 0 0 1-.187-.096c-.113-.06-.226-.125-.339-.187-.034-.024-.073-.044-.112-.066a15.902 15.902 0 0 1-.438-.269 2.104 2.104 0 0 1-.118-.079 6.002 6.002 0 0 1-.312-.206c-.035-.023-.067-.048-.103-.073a9.541 9.541 0 0 1-.294-.212c-.042-.034-.087-.066-.132-.1-.088-.069-.177-.135-.265-.208l-.118-.094a10.58 10.58 0 0 1-.334-.281.258.258 0 0 0-.037-.03l-.347-.316-.1-.094c-.082-.083-.166-.163-.25-.245l-.097-.1a9.07 9.07 0 0 1-.309-.323l-.015-.016a17.944 17.944 0 0 1-.313-.354c-.027-.031-.052-.064-.08-.097l-.226-.277a21.248 21.248 0 0 1-.34-.448C2.16 11.786 1.315 7.386 3.184 3.777"/><path d="M8.121 3.305c-1.539 2.209-1.452 5.163-.254 7.499a9.1 9.1 0 0 0 .677 1.132c.23.33.484.72.792.986.107.122.223.24.344.359l.09.09c.114.11.231.218.35.325l.015.013a9.855 9.855 0 0 0 .414.342c.034.023.063.05.096.073.14.108.281.212.427.315l.015.009c.062.045.128.086.198.13.028.018.06.042.09.06.106.068.21.132.317.197.017.007.032.016.048.023.09.055.188.108.282.157.033.02.065.035.099.054.067.033.133.068.197.102l.032.014c.135.066.273.128.408.19.034.013.063.024.092.038.111.048.224.094.335.137.05.017.097.037.144.052.102.038.209.073.31.108l.14.045c.146.045.294.104.448.129 7.92 1.313 9.754-4.787 9.754-4.787-1.651 2.376-4.846 3.508-8.251 2.624a8.03 8.03 0 0 1-.448-.13c-.048-.013-.09-.028-.136-.042-.104-.036-.211-.071-.312-.109l-.144-.054c-.112-.045-.226-.087-.335-.135-.034-.015-.065-.025-.091-.04-.14-.063-.281-.125-.417-.192l-.206-.107-.119-.06a5.67 5.67 0 0 1-.265-.15.62.62 0 0 1-.062-.034c-.106-.066-.216-.13-.317-.198-.034-.019-.065-.042-.097-.062l-.208-.136c-.144-.1-.285-.208-.427-.312-.032-.029-.063-.053-.094-.079-1.497-1.177-2.678-2.786-3.238-4.608-.59-1.894-.46-4.018.559-5.742"/><path d="M13.66 1.384c-.908 1.332-.995 2.986-.37 4.455.664 1.56 2.022 2.785 3.604 3.365.065.025.128.046.195.07l.088.027c.092.029.185.063.28.084 4.376.844 5.56-2.247 5.879-2.701-1.042 1.496-2.789 1.855-4.932 1.334a4.844 4.844 0 0 1-.516-.16 6.344 6.344 0 0 1-.617-.254 6.521 6.521 0 0 1-1.08-.66c-1.92-1.454-3.109-4.23-1.857-6.491"/></svg><svg viewBox="-1 -1 26 26" width="26" height="26" x="26" y="78" xmlns="http://www.w3.org/2000/svg"><path d="M20.447 20.452h-3.554v-5.569c0-1.328-.027-3.037-1.852-3.037-1.853 0-2.136 1.445-2.136 2.939v5.667H9.351V9h3.414v1.561h.046c.477-.9 1.637-1.85 3.37-1.85 3.601 0 4.267 2.37 4.267 5.455v6.286zM5.337 7.433a2.062 2.062 0 0 1-2.063-2.065 2.064 2.064 0 1 1 2.063 2.065zm1.782 13.019H3.555V9h3.564v11.452zM22.225 0H1.771C.792 0 0 .774 0 1.729v20.542C0 23.227.792 24 1.771 24h20.451C23.2 24 24 23.227 24 22.271V1.729C24 .774 23.2 0 22.222 0h.003z"/></svg><svg viewBox="-1 -1 26 26" width="26" height="26" x="52" y="78" xmlns="http://www.w3.org/2000/svg"><path d="M11.026 1.854l.324.105-.262-.95-.153.472.09.372m.532.992c.103-.077.225-.167.363-.265h.017l-1.11-.336.72.61.01-.01zm-.817.715l-.106.092.118-.08-.012-.01zm.387-.32L9.387 1.8l.09.646L10.74 3.56c.05-.04.097-.086.147-.124l.24-.195zm1.347-1.035l-.534-.447.195.675c.105-.075.22-.15.34-.228zM5.442 14.186c.39.002.675.192.81.388.12.18.075.286.135.337.015.013.03.02.045.02s.03-.002.03-.007c.075-.03.105-.145.12-.225.015-.193-.09-.41-.225-.563a1.344 1.344 0 0 0-1.005-.428h-.015c-.195 0-.36.034-.42.052-.03.01-.09.022-.135.037-.765.3-1.11 1.05-.945 1.8.033.19.116.37.24.518.075.078.15.113.195.113.06 0 .09-.05.045-.135-.015-.043-.12-.223-.135-.55-.012-.332.064-.68.28-.944.158-.196.353-.282.375-.292l.005.006.086-.045.04-.017c.097-.03.042-.018.142-.036h.03c.088-.02.18-.03.27-.03h.032zm8.52-2.593c.263.006.522.062.765.165.166.06.3.12.36.12.03 0 .045-.016.045-.016.03-.024.015-.08-.045-.154-.135-.195-.39-.366-.63-.45a1.544 1.544 0 0 0-.536-.094l.027-.036c-.375 0-.75.135-1.05.375-.226.18-.315.375-.226.39h.017c.074 0 .194-.045.36-.105.36-.135.644-.195.9-.195h.015zm3.37-.771c.266-.024.533.023.773.14-.015-.66-.4-1.402-.69-1.3-.17.06-.2.36-.194.54.01.223.04.42.112.63v-.01z"/><path d="M5.947 15.126a.228.228 0 0 1-.09-.13c-.02-.098-.01-.152.075-.212.065-.045.118-.066.118-.093 0-.024-.055-.055-.13-.055l.017-.043a.348.348 0 0 0-.24.106c-.12.134-.165.404.03.63.224.24.57.3.614.6.01.05.014.1.01.15 0 .045-.017.12-.017.135a.658.658 0 0 1-.656.51h-.142c-.048-.015-.083-.015-.113-.015-.02 0-.036 0-.042.016-.034.045.153.27.498.27h.02c.51-.016.93-.54.83-1.11-.09-.503-.593-.61-.78-.758zm8.987-2.7h.016c.052 0 .082-.01.097-.03.04-.067-.226-.282-.614-.282l-.053.02c-.06 0-.12 0-.18.016l-.165.045c-.03 0-.045.015-.06.015a.848.848 0 0 0-.315.195c-.104.12-.15.225-.104.24h.014c.046 0 .105-.03.21-.07.317-.137.663-.19 1.006-.158.058.003.103.01.148.01zm2.914-.624c-.03.195.06.36.194.39.015 0 .03.015.03.015.135 0 .24-.13.27-.305.03-.19-.06-.362-.21-.383-.01-.004-.018-.004-.026-.004l.026-.03c-.135 0-.255.136-.284.316zm-1.028.708a.467.467 0 0 0 .236.064c.107 0 .2-.045.245-.125.08-.14-.016-.335-.205-.44a.497.497 0 0 0-.234-.064l-.007.01c-.104 0-.194.044-.24.12-.074.135.018.345.207.435z"/><path d="M23.38 15.627h.015a1.263 1.263 0 0 0-.875-.69c-.133-.603-.315-.9-.33-.944.07-.078.135-.158.15-.176.56-.69.194-1.695-.76-1.936-.537-.51-1.023-.75-1.422-.96-.383-.18-.23-.104-.588-.27-.096-.464-.127-1.544-.28-2.31-.134-.674-.41-1.17-.833-1.5-.17-.36-.405-.734-.693-1.004 1.332-2.04 1.68-4.05.705-5.1C18.04.226 17.394 0 16.623 0c-1.09 0-2.424.443-3.774 1.26l-.892-.72C8.203-2.415-2.415 10.65 1.333 13.505l.968.74c-.607 1.688.238 3.704 2 4.35.374.144.81.212 1.244.188 0 0 2.835 5.215 8.835 5.217 6.93 0 8.7-6.79 8.73-6.85 0 0 .554-.832.27-1.523zM1.613 12.64h.007c-.76-1.285.565-3.922 1.507-5.42 2.325-3.706 6.2-6.628 7.96-6.21l.485-.186 1.323 1.118c.91-.548 2.067-1.103 3.15-1.213-.66.146-1.462.49-2.415 1.07-.02.015-2.25 1.53-3.61 2.88-.743.735-3.72 4.305-3.72 4.305.546-1.02.904-1.53 1.767-2.61.495-.615 1.02-1.2 1.545-1.755.255-.255.495-.495.75-.735.093-.078.183-.153.272-.233-.295.204-1.11.772-1.562 1.15C6.805 6.674 4.615 9.6 3.79 12.45h.04c-.41.225-.81.585-1.166 1.073-.015 0-.915-.666-1.05-.884zM5.324 18c-1.34 0-2.43-1.143-2.43-2.555 0-1.41 1.09-2.557 2.43-2.557.35 0 .68.075.976.215 0 0 .517.262.663 1.492.15-.385.228-.7.228-.7a4.44 4.44 0 0 1 .226 1.65c.145-.194.3-.554.3-.554.264 1.574-.88 3.01-2.392 3.01zm2.99-9.028l-.04-.064c.098-.13.21-.255.318-.382a9.36 9.36 0 0 1 3.062-2.854c-.172-.026-.59.03-.664.036.417-.36 1.19-.597 1.725-.705-.154-.1-.528-.126-.712-.13-.056-.015-.056-.015-.12 0 .504-.285 1.438-.45 2.286-.3-.12-.15-.36-.255-.525-.3l-.076-.03.06-.015c.51-.105 1.11 0 1.575.195-.06-.135-.195-.27-.285-.36l-.075-.06c.495.105.96.315 1.32.555-.06-.09-.18-.255-.255-.345.465.135.99.465 1.23.945l.015.045c-.9-.69-3.51-.495-6.12 1.2a10.625 10.625 0 0 0-2.442 2.123c-.177.263-.276.44-.28.446zm14.015 7.964c-.03.06-.36 1.83-2.25 3.315-2.37 1.876-5.506 1.682-6.676.63-.63-.6-.9-1.438-.9-1.438s-.075.48-.09.66c-.48-.81-.435-1.8-.435-1.8s-.256.464-.36.734c-.346-.9-.166-1.815-.166-1.815l-.27.406s-.135-1.02.18-1.86c.345-.9 1.005-1.545 1.14-1.635-.51-.15-1.08-.614-1.08-.614s.225.016.39-.03c0 0-1.005-.72-1.185-1.83.15.18.464.376.464.376-.104-.285-.165-.945-.06-1.575.18-1.215 1.185-1.995 2.325-1.995 1.198 0 2.01.255 3.028-.675.21-.195.375-.36.676-.435.03 0 .12-.03.27-.03a.835.835 0 0 1 .465.12c.554.33.675 1.185.734 1.8.21 2.325.12 1.905 1.065 2.385.448.225.958.435 1.528 1.05v.016c.48 0 .72.39.51.66-1.62 1.935-3.885 2.864-6.404 2.94l-.33.015c-1.02.03-1.35 1.35-.705 2.13.403.495 1.184.66 1.83.66 2.76.06 5.534-1.89 6.014-2.97l.03-.076c-.105.135-2.79 2.655-6.045 2.565 0 0-.36-.015-.69-.09-.436-.105-.78-.3-.9-.75.27.06.615.09 1.02.09 2.355 0 4.05-1.08 3.885-1.095h-.03c-.27.06-3.104 1.154-4.89.584a.888.888 0 0 1 .025-.153c.16-.534.443-.46.9-.48l-.1.117a10.024 10.024 0 0 0 3.943-.93c1.05-.505 1.846-1.15 2.146-1.47.374.63.374 1.44.374 1.44s.136-.054.33-.054c.615 0 .75.555.285 1.11z"/></svg><svg viewBox="-1 -1 26 26" width="26" height="26" xmlns="http://www.w3.org/2000/svg"><path d="M16.405 5.676c-.115 0-.193.014-.274.033v.013h.014c.054.104.146.18.214.273.054.107.1.214.154.32l.014-.015c.094-.066.14-.172.14-.333-.04-.047-.046-.094-.08-.14-.04-.067-.126-.1-.18-.153zM5.77 18.87h-.927a50.854 50.854 0 0 0-.27-4.41h-.008l-1.41 4.41H2.45l-1.4-4.41h-.01a72.892 72.892 0 0 0-.195 4.41H0c.055-1.966.192-3.81.41-5.53h1.15l1.335 4.064h.008L4.25 13.34h1.095c.242 2.015.384 3.86.428 5.53zm4.017-4.08c-.378 2.045-.876 3.533-1.492 4.46-.482.716-1.01 1.073-1.583 1.073-.153 0-.34-.046-.566-.138v-.494c.11.017.24.026.386.026.268 0 .483-.075.647-.222.197-.18.295-.382.295-.605 0-.155-.077-.47-.23-.944L6.23 14.79h.91l.727 2.36c.164.536.233.91.205 1.123.4-1.064.678-2.227.835-3.483h.88zm12.325 4.08h-2.63v-5.53h.885v4.85h1.745zm-3.32.135l-1.016-.5c.09-.076.177-.158.255-.25.433-.506.648-1.258.648-2.253 0-1.83-.718-2.746-2.155-2.746-.704 0-1.254.232-1.65.697-.43.508-.646 1.256-.646 2.245 0 .972.19 1.686.574 2.14.35.41.877.615 1.583.615.264 0 .506-.033.725-.098l1.325.772.36-.622zM15.5 17.763c-.225-.36-.337-.94-.337-1.736 0-1.393.424-2.09 1.27-2.09.443 0 .77.167.977.5.224.362.336.936.336 1.723 0 1.404-.424 2.108-1.27 2.108-.445 0-.77-.167-.978-.5zm-1.658-.425c0 .47-.172.856-.516 1.156s-.803.45-1.384.45c-.543 0-1.064-.172-1.573-.515l.237-.476c.438.22.833.328 1.19.328.332 0 .593-.073.783-.22a.754.754 0 0 0 .3-.615c0-.33-.23-.61-.648-.845-.388-.213-1.163-.657-1.163-.657-.422-.307-.632-.636-.632-1.177 0-.45.157-.81.47-1.085.315-.278.72-.415 1.22-.415.512 0 .98.136 1.4.41l-.213.476a2.726 2.726 0 0 0-1.064-.23c-.283 0-.502.068-.654.206a.685.685 0 0 0-.248.524c0 .328.234.61.666.85.393.215 1.187.67 1.187.67.433.305.648.63.648 1.168z"/><path d="M23.224 11.486c-.535-.014-.95.04-1.297.188-.1.04-.26.04-.274.167.055.053.063.14.11.214.08.134.218.313.346.407.14.11.28.216.427.31.26.16.555.255.81.416.145.094.293.213.44.313.073.05.12.14.214.172v-.02c-.046-.06-.06-.147-.105-.214-.067-.067-.134-.127-.2-.193a3.223 3.223 0 0 0-.695-.675c-.214-.146-.682-.35-.77-.595l-.013-.014c.146-.013.32-.066.46-.106.227-.06.435-.047.67-.106.106-.027.213-.06.32-.094v-.06c-.12-.12-.21-.283-.334-.395a8.867 8.867 0 0 0-1.104-.823c-.21-.134-.476-.22-.697-.334-.08-.04-.214-.06-.26-.127-.12-.146-.19-.34-.275-.514a17.69 17.69 0 0 1-.547-1.163c-.12-.262-.193-.523-.34-.763-.69-1.137-1.437-1.826-2.586-2.5-.247-.14-.543-.2-.856-.274-.167-.008-.334-.02-.5-.027-.11-.047-.216-.174-.31-.235-.38-.24-1.364-.76-1.644-.072-.18.434.267.862.422 1.082.115.153.26.328.34.5.047.116.06.235.107.356.106.294.207.622.347.897.073.14.153.287.247.413.054.073.146.107.167.227-.094.136-.1.334-.154.5-.24.757-.146 1.693.194 2.25.107.166.362.534.703.393.3-.12.234-.5.32-.835.02-.08.007-.133.048-.187v.015c.094.188.188.367.274.555.206.328.566.668.867.895.16.12.287.328.487.402v-.02h-.015c-.043-.058-.1-.086-.154-.133a3.445 3.445 0 0 1-.35-.4 8.76 8.76 0 0 1-.747-1.218c-.11-.21-.202-.436-.29-.643-.04-.08-.04-.2-.107-.24-.1.146-.247.273-.32.453-.127.288-.14.642-.188 1.01-.027.007-.014 0-.027.014-.214-.052-.287-.274-.367-.46-.2-.475-.233-1.238-.06-1.785.047-.14.247-.582.167-.716-.042-.127-.174-.2-.247-.303a2.478 2.478 0 0 1-.24-.427c-.16-.374-.24-.788-.414-1.162-.08-.173-.22-.354-.334-.513-.127-.18-.267-.307-.368-.52-.033-.073-.08-.194-.027-.274.014-.054.042-.075.094-.09.088-.072.335.022.422.062.247.1.455.194.662.334.094.066.195.193.315.226h.14c.214.047.455.014.655.073.355.114.675.28.962.46a5.953 5.953 0 0 1 2.085 2.286c.08.154.115.295.188.455.14.33.313.663.455.982.14.315.275.636.476.897.1.14.502.213.682.286.133.06.34.115.46.188.23.14.454.3.67.454.11.076.443.243.463.378z"/></svg><svg viewBox="-1 -1 26 26" width="26" height="26" x="104" xmlns="http://www.w3.org/2000/svg"><path d="M11.435.153l-9.37 5.43c-.35.203-.564.578-.563.983V17.43c0 .404.215.78.564.982l9.37 5.435c.35.203.78.203 1.13 0l9.366-5.433a1.14 1.14 0 0 0 .565-.982V6.566c0-.404-.216-.78-.566-.984L12.567.152a1.124 1.124 0 0 0-1.13 0"/></svg><svg viewBox="-1 -1 26 26" width="26" height="26" x="104" y="26" xmlns="http://www.w3.org/2000/svg"><path d="M0 7.334v8h6.666v1.332H12v-1.332h12v-8H0zm6.666 6.664H5.334v-4H3.999v4H1.335V8.667h5.331v5.331zm4 0v1.336H8.001V8.667h5.334v5.332h-2.669v-.001zm12.001 0h-1.33v-4h-1.336v4h-1.335v-4h-1.33v4h-2.671V8.667h8.002v5.331z"/><path d="M10.665 10H12v2.667h-1.335V10z"/></svg><svg viewBox="-1 -1 26 26" width="26" height="26" x="104" y="52" xmlns="http://www.w3.org/2000/svg"><path d="M7.01 10.207h-.944l-.515 2.648h.838c.556 0 .97-.105 1.242-.314.272-.21.455-.559.55-1.049.092-.47.05-.802-.124-.995-.175-.193-.523-.29-1.047-.29z"/><path d="M12 5.688C5.373 5.688 0 8.514 0 12s5.373 6.313 12 6.313S24 15.486 24 12c0-3.486-5.373-6.312-12-6.312zm-3.26 7.451c-.261.25-.575.438-.917.551-.336.108-.765.164-1.285.164H5.357l-.327 1.681H3.652l1.23-6.326h2.65c.797 0 1.378.209 1.744.628.366.418.476 1.002.33 1.752a2.836 2.836 0 0 1-.305.847c-.143.255-.33.49-.561.703zm4.024.715l.543-2.799c.063-.318.039-.536-.068-.651-.107-.116-.336-.174-.687-.174H11.46l-.704 3.625H9.388l1.23-6.327h1.367l-.327 1.682h1.218c.767 0 1.295.134 1.586.401s.378.7.263 1.299l-.572 2.944h-1.389zm7.597-2.265a2.782 2.782 0 0 1-.305.847c-.143.255-.33.49-.561.703a2.44 2.44 0 0 1-.917.551c-.336.108-.765.164-1.286.164h-1.18l-.327 1.682h-1.378l1.23-6.326h2.649c.797 0 1.378.209 1.744.628.366.417.477 1.001.331 1.751z"/><path d="M17.766 10.207h-.943l-.516 2.648h.838c.557 0 .971-.105 1.242-.314.272-.21.455-.559.551-1.049.092-.47.049-.802-.125-.995s-.524-.29-1.047-.29z"/></svg><svg width="26" height="26" viewBox="-1 -1 26 26" x="104" y="78" xmlns="http://www.w3.org/2000/svg"><g fill-rule="evenodd"><path d="M4.603 10.059c.032.024.088.04.032.088-.04.056-.088.104-.12.168-.032.057-.056.073-.104.033.064-.105.128-.201.192-.29zm16.114 8.413c0 .024.008.04.008.064.016-.032.016-.048.025-.064zm0 .072v-.008zm-1.635 3.13l-1.395-7.738c-.024-.007-.056-.023-.112-.04a.53.53 0 0 1 .032.08c.04-.007.056-.007.072-.015 0-.008 0-.016.008-.025l1.395 7.74zm-1.443-9.48c-.008.024-.008.048-.008.072 0-.024 0-.048.009-.072zm.008.16c-.008 0-.008 0-.016-.008v.008c.009.008.009.008.016 0zm-.016.064v-.056c-.023.008-.048.008-.08.016.04.015.08.024.08.04z"/><path d="M23.876 10.468c-.016-.313-.024-.626-.056-.94-.056-.425-.112-.858-.208-1.276a7.223 7.223 0 0 0-.313-1.003c-.152-.386-.305-.779-.497-1.148-.313-.594-.722-1.124-1.098-1.678-.25-.354-.57-.642-.81-1.004-.137-.208-.337-.385-.538-.545-.32-.257-.657-.49-.994-.715a9.909 9.909 0 0 0-.786-.498c-.216-.12-.449-.217-.673-.321-.257-.12-.505-.266-.794-.322-.072-.015-.136-.04-.209-.064-.184-.064-.36-.136-.545-.192-.28-.088-.553-.193-.842-.265a7.731 7.731 0 0 0-.857-.16c-.32-.048-.649-.065-.97-.096a8.174 8.174 0 0 0-.617-.056c-.305-.016-.617-.016-.922-.024-.152-.008-.313-.024-.465-.016a6.839 6.839 0 0 0-.698.064c-.224.024-.448.064-.665.097-.264.032-.528.048-.793.08-.249.032-.505.08-.753.12-.089.017-.177.049-.265.065-.192.04-.393.056-.585.12-.345.105-.69.226-1.026.354a9.433 9.433 0 0 0-.914.425c-.305.168-.594.369-.882.562a13.808 13.808 0 0 0-.81.586 9.61 9.61 0 0 0-.73.65c-.128.128-.232.281-.353.426-.2.233-.4.457-.593.698-.16.201-.305.41-.457.619a10.23 10.23 0 0 0-.72 1.155c-.089.16-.17.321-.25.482-.12.24-.248.473-.36.722-.08.17-.144.354-.193.538-.111.394-.224.796-.328 1.189-.096.353-.12.722-.128 1.083-.008.322.024.635.056.956.008.08-.04.177.056.24-.032.089-.008.138.04.153-.056.088.024.145-.008.225-.008.016.025.048.04.072 0 .025-.008.057 0 .08.008.073.04.145.04.225 0 .056.048.12.064.177.008.024 0 .064-.016.08-.048.056-.04.104.032.137.04.104.025.152.017.2.015.073-.009.097 0 .113.064.128.088.273.096.417 0 .033.016.065.032.105.008 0 0 .152 0 .152.04-.024.072-.032.112-.048.024.104.048.201.08.29.04.064.04.095.024.103.032.145.048.281.104.418 0-.153-.015-.305-.04-.45.113.04.209.08.273.08.008-.024.016-.056.024-.072-.048-.048-.088-.12-.136-.168.016.064 0 .088 0 .113-.032-.017-.072-.033-.112-.049.032-.04.064-.08.112-.128 0-.072-.04-.137-.152-.129.048-.016.096-.04.152-.056.088-.048-.008-.136-.008-.248.008-.137-.072-.273-.096-.418-.04-.224-.032-.562-.056-.786-.048-.04-.089.064-.097.072.025.192.049.385.064.578-.047-.16-.08-.338-.12-.53-.008.056-.016.08-.016.112-.04.04-.008.089.016.145-.056-.025-.12-.016-.12-.016v.225c-.08-.08-.104-.145-.144-.201-.016-.064-.024-.128-.04-.192.016-.04 0-.065 0-.089a4.865 4.865 0 0 1-.024-.193c.008-.008-.008-.128-.008-.128.064.008.105.016.144.016-.08-.104-.024-.169.009-.233.016-.032.072-.04.088-.072.064-.12.169-.217.169-.37 0-.072.024-.152.032-.225.016-.136.032-.272.04-.409.016-.177 0-.353.04-.522.064-.28.144-.561.232-.842.064-.202.137-.393.217-.595.12-.313.232-.626.385-.923.216-.433.465-.85.705-1.276.153-.265.313-.514.482-.77.16-.25.32-.507.504-.74a6.535 6.535 0 0 1 .85-.907c.321-.289.626-.586.97-.85a9.744 9.744 0 0 1 1.427-.917c.409-.216.834-.385 1.259-.546.272-.104.569-.152.85-.24.32-.105.64-.153.978-.161.216-.008.425-.032.64-.056.193-.016.386-.032.594-.056-.024.032-.032.048-.04.064-.088.128-.184.257-.272.385-.072.105-.153.217-.225.321-.128.17-.265.338-.385.515-.184.265-.353.538-.545.802-.192.257-.4.498-.601.747-.265.345-.513.698-.778 1.043-.24.33-.496.643-.73.972-.207.289-.392.594-.593.89-.296.442-.593.876-.89 1.317a82.843 82.843 0 0 1-.705 1.004c-.016.024-.04.032-.064.048-.064.104-.064.16-.088.208-.064.12-.128.241-.2.354-.04.064-.097.12-.145.184-.008-.096.128-.144.064-.265-.04.065-.08.12-.12.185l-.096.192c.032.024.088.04.032.088-.025.04-.048.089-.072.13a.29.29 0 0 0 .088-.081c0 .088-.048.16-.088.232-.032.064-.113.113-.169.16.008.009.064.033.073.041.072-.024.096-.064.104-.04.025-.032.048-.056.056-.08a.29.29 0 0 1 .16-.177.313.313 0 0 0 .08-.064c.24-.25.49-.49.706-.755.337-.41.641-.835.963-1.252.135-.177.296-.353.44-.522.024.184.008.36 0 .53-.024.297-.04.594-.064.899-.008.12 0 .24-.008.36 0 .033-.025.057-.025.09 0 .08.025.168.025.248-.025.297-.057.586-.08.883-.01.064.023.129.039.185-.04.433.048.891-.024 1.349.056-.089.072-.145.072-.2.008-.049 0-.097 0-.153v-.08c.008-.145.04-.298.024-.442a1.494 1.494 0 0 1 .016-.466c.016-.064-.008-.144.032-.225v.12c-.008.458.009.916-.055 1.373-.009.04.024.113-.064.105-.073.144.015.249-.064.329-.017.016.015.088.023.136-.032.097-.032.097.016.105.008.176.024.337.032.505.128-.304.064-.618.12-.931.008.128.017.257.008.393 0 .209-.007.41-.015.618 0 .04-.009.08-.016.12-.025.114-.032.226-.073.33-.032.08-.016.2-.016.297v.305c.032.137-.008.21.016.29-.024.08-.032.104-.024.128l.024.12c.16-.016.089.105.153.169-.049.064-.032.088-.032.12 0 .073-.008.137-.016.21 0 .184-.008.369-.008.545 0 .025.008.048.008.072l-.008.226c.016.024 0 .048-.024.072-.008 0-.032-1.02-.032-1.02h-.12c-.016.481.024.915-.064 1.365-.097.007-.128.024-.233.024-.249 0-.497 0-.746.008-.297 0-.585.007-.882.007-.144 0-.296.017-.44.017-.193 0-.394-.024-.585-.024-.297 0-.586.024-.883.032-.216.008-.432.008-.649.016-.144.008-.289.015-.433.032-.064.008-.12.032-.2.056-.025 0-.08-.008-.128 0-.081.016-.153.064-.233.08-.12.025-.153.056-.137.177v.08c-.008.016.177-.024.177-.024-.017 0-.024.048-.049.088.065-.024.105-.04.145-.056.12.056.224.024.32.049.313.08.633.112.954.144.209.016.41.024.617.032.297.016.594.032.89.032.249 0 .49-.024.737-.024.345 0 .69.015 1.035.024.072 0 .152-.009.232-.009h.585c.522-.015 1.042-.024 1.564-.04.297-.008.601-.023.898-.032l.914-.024c.353-.008.705-.008 1.05-.015.265 0 .521-.01.786-.017.296-.008.601-.032.898-.048.16-.008.32-.024.481-.04.193-.016.393-.04.585-.048.289-.016.586-.024.874-.04.361-.024.722-.056 1.09-.064.337-.016.682-.008 1.019-.016.297-.009.593-.025.898-.033l.506-.024s.336-.008.504-.024c.289-.016.577-.048.866-.056.184-.008.369 0 .553-.008.297-.008.601-.025.898-.025.112 0 .232.017.377.025-.064.056-.105.088-.153.128.032.008.064.025.096.04a.216.216 0 0 1-.127.04c-.017.04-.033.057-.05.137h.145c-.056 0-.104.072-.16.12-.064-.016-.12 0-.152.089.056.032.048.056.04.088-.096.032-.169.064-.128.168-.033.016-.073.032-.113.056-.04.064-.112.08-.096.169.032.008.064.024.088.032-.04.016-.08.04-.12.056-.144.088-.08.128-.048.168a.288.288 0 0 1-.072.04c.016.073.04.089.048.089a2.834 2.834 0 0 0-.12.096c-.025.072-.057.104-.089.153-.032.048-.048.112-.088.16-.168.185-.289.402-.505.546-.08.057-.152.129-.225.201-.144.137-.272.29-.425.418a9.016 9.016 0 0 1-.625.473c-.264.185-.528.37-.793.546-.144.096-.305.168-.457.257-.152.088-.297.168-.45.257-.095.063-.184.152-.288.2-.264.113-.545.21-.818.314-.265.112-.457.208-.657.28a4.525 4.525 0 0 1-.57.153c-.063.016-.136 0-.208.008-.136.025-.272.057-.409.073-.353.048-.706.08-1.058.128-.209.025-.41.064-.618.089-.144.008-.296-.008-.44-.008-.105 0-.217.024-.321.008-.168-.024-.337-.064-.505-.096-.04-.008-.097-.025-.128-.008-.064.032-.12-.016-.185 0-.04.008-.08-.025-.12-.025-.032-.007-.073.009-.113 0-.088-.023-.168-.055-.265-.047-.095.007-.192-.04-.295-.064l-.426-.097a.725.725 0 0 1-.16-.072c-.208 0-.345-.008-.473-.057-.112-.04-.216-.096-.337-.08-.031.009-.056-.007-.088-.007-.024-.033-.048-.097-.072-.097-.16.008-.256-.128-.393-.168-.072-.025-.128-.105-.2-.129-.177-.072-.32-.224-.52-.249-.065-.008-.129-.04-.201-.064.024.032.04.056.064.08-.233-.112-.449-.24-.666-.361-.031-.008-.055-.04-.08-.056l-.216-.144c-.12.024-.168-.025-.2-.04-.217-.153-.465-.25-.674-.418-.088-.073-.192-.12-.256-.209a1.267 1.267 0 0 0-.401-.313 4.561 4.561 0 0 1-.344-.209c-.057-.04-.113-.088-.113-.176 0-.057-.024-.113-.096-.08-.032-.049-.064-.105-.104-.121-.097-.04-.16-.113-.233-.177-.072-.064-.128-.152-.216-.184-.16-.064-.257-.2-.353-.313-.225-.265-.425-.554-.634-.835-.016-.024-.048-.04-.072-.064.032.088.072.16.112.24A.48.48 0 0 1 2.513 18c-.008.008.553.931.553.931.049.073.089.145.137.217a.248.248 0 0 1-.24-.128c-.073-.128-.153-.209-.313-.192a1.398 1.398 0 0 1-.04-.177c-.033 0-.056 0-.113-.008.113.177.209.329.313.506l-.08-.049c.143.153.248.346.432.442.04.184.249.273.297.45l-.113-.025c-.064-.08-.136-.16-.208-.248.016.056.04.104.072.144.096.12.184.24.296.345.04.04.097.057.097.13.064.031.088.039.112.039.016.049-.008.12.088.105.064.12.128.12.217.08.104.105.16.113.232.049 0 .04.008.08.008.112.032-.016.025-.04.025-.08.04.032.064.048.08.064.08.112.152.216.264.305.152.128.289.265.432.385.281.233.594.426.907.602.385.217.754.45 1.146.658.473.25.978.418 1.5.539.192.04.376.08.569.128.168.048.336.12.505.16.256.057.52.105.777.153l.177.024c.072.016.16-.016.176.009.04.064.072.031.12.023.056-.016.12-.016.184-.016.225.008.441.056.666.04.049 0 .12-.04.16.04.073-.032.113-.032.145-.04.008.072 0 .072-.015.08-.017.008-.041.016-.073.04.289.056.561.064.801 0 .418.032.778-.016 1.123-.136.032.04.056.096.104.016.016-.024.056-.033.089-.04.072-.017.16-.049.224-.025.072.025.097-.04.152-.04a1.5 1.5 0 0 0 .273-.024c.048-.008.097-.032.153-.048a.388.388 0 0 0-.177-.04 4.98 4.98 0 0 1 .273-.128c-.016.023-.032.055-.064.055h.112c-.025 0-.057.073-.097.12l.81-.2c-.089-.169.096-.112.16-.209-.08.025-.16.048-.24.064.272-.136.553-.256.825-.377-.04.048-.088.073-.16.113.048.008.08.008.104.015.128.04.097-.08.136-.152.153 0 .217-.024.289-.048.08-.025.16-.048.24-.08.129-.056.249-.128.377-.192.025-.009.064 0 .096 0 .089-.057.12-.105.145-.097.112.016.191-.024.224-.128.056-.04.096-.073.136-.097.176-.096.344-.192.52-.289.065 0 .097 0 .113-.008.105-.049.201-.104.297-.16a.688.688 0 0 1-.08-.04c.08-.017.103-.024.152-.04.192-.226.457-.378.657-.555.089-.008.089-.032.089-.048.031-.04.064-.088.103-.12.177-.161.369-.298.53-.466.232-.233.456-.474.665-.723.192-.225.385-.45.545-.699.225-.345.417-.698.617-1.06.145-.256.273-.513.418-.77.015-.024.048-.056.072-.056.216-.025.433-.04.641-.064.048-.008.104-.04.153-.064-.025-.04-.04-.089-.064-.129-.033-.049-.08-.088-.113-.137a.76.76 0 0 1-.08-.136c-.024-.04-.048-.072-.072-.113a2.916 2.916 0 0 1-.137-.272c-.008-.025-.025-.064-.016-.088.144-.313.2-.65.337-.964.136-.32.176-.682.24-1.027.056-.33.089-.658.128-.987.025-.233.057-.458.064-.69.049-.37.032-.715.025-1.061-.008-.305-.025-.618-.04-.923zM3.761 20.35c-.056-.064-.104-.136-.16-.2l.025-.025c.087.097.175.193.263.298-.048-.025-.104-.04-.128-.073zm.128.073c.025-.008.05-.008.073-.016.024.04.04.088.064.136-.112-.008-.168-.056-.136-.12zm8.339 3.315v-.024l.448-.048v.024c-.152.024-.296.04-.448.048zm2.02-.208c-.112.024-.233.04-.345.056-.04.008-.088.048-.104-.024-.016.008-.032.008-.048.016.04.12.136.024.216.072-.176.025-.344.04-.513.064v-.016l.153-.024v-.024a2.347 2.347 0 0 0-.241-.016c-.024 0-.056.032-.08.04-.032.008-.064.016-.104.016-.136.008-.272.008-.401.016-.008 0-.024-.008-.032-.008v-.024l1.603-.216c.008.016.008.032.016.048-.048 0-.08.016-.12.024zm.12-.08c.185-.025.354-.04.53-.064-.369.104-.49.12-.53.064zM7.385 7.24c.256-.353.521-.706.778-1.067.08-.105.144-.217.224-.322.024-.032.056-.048.096-.08l-.008-.015c.032-.04.064-.073.08-.105.041-.064.065-.137.097-.209a.117.117 0 0 1 .032-.031c.113.056.113-.064.153-.105a5.57 5.57 0 0 0 .208-.249c.048-.064.096-.12.137-.192.007-.024-.017-.064-.025-.097h-.024c.025-.015.049-.04.073-.056.008 0 .008 0 .015-.008a3.453 3.453 0 0 1 .457-.578c-.016.04-.032.08-.048.113.008 0 .008.008.016.008.096-.128.2-.249.297-.378-.008-.007-.016-.016-.025-.016-.04.04-.071.08-.112.121-.008-.008-.015-.016-.024-.016.08-.105.16-.209.24-.329.017.024.033.056.065.12.032-.08.064-.136.088-.192-.024.024-.056.048-.08.072l-.024-.024.144-.216c.153-.217.305-.442.457-.66.057-.08.128-.143.177-.224.152-.305.393-.546.577-.827.04-.056.096-.104.144-.152.04-.049.072-.032.104.008.217.273.433.554.65.827.16.2.32.393.473.602.184.257.36.514.545.77.208.297.417.595.617.9.305.45.593.899.898 1.348.225.33.45.65.665.98h-.409c-.376-.008-.762-.04-1.138-.024-.513.024-1.034.08-1.547.12a22.68 22.68 0 0 1-1.956.064c-.233 0-.465.033-.698.05-.28.015-.553.031-.834.039-.329.016-.649.024-.978.032-.184.008-.377 0-.577 0zm9.196 3.693v.073c-.008 0-.016.008-.032.008-.032-.113-.064-.233-.105-.346a2.695 2.695 0 0 0-.313-.674c-.16-.225-.304-.457-.465-.69-.04-.057-.096-.105-.144-.153-.169-.185-.337-.377-.554-.514a6.545 6.545 0 0 0-1.002-.514 2.246 2.246 0 0 1-.28-.144h.192l1.37-.025c.297-.007.586-.007.883-.023.071 0 .112.024.152.088.072.12.144.24.224.361.008.016.024.04.024.064 0 .177 0 .362.008.538.008.185.025.362.032.546 0 .185-.016.377-.008.57.008.273.016.554.016.835zM7.954 8.245c.377-.016.737-.04 1.107-.056.287-.016.584-.025.873-.04.12-.008.232-.016.352 0-.127.064-.256.128-.368.208-.145.097-.28.225-.425.33a2.405 2.405 0 0 0-.393.369c-.152.184-.32.345-.481.521-.113.129-.241.25-.337.386-.136.176-.257.368-.385.57.04-.764.088-1.518.056-2.289zm5.235 7.723c-.256.064-.52.136-.786.168-.224.033-.456.025-.689.025a7.744 7.744 0 0 1-.618-.025c-.232-.023-.465-.047-.69-.152-.192-.088-.392-.168-.584-.265-.193-.096-.385-.208-.53-.385-.104-.129-.248-.233-.377-.346.025.097.08.177.169.233-.04.048-.097.025-.177-.104-.024.016-.048.024-.064.032.024-.056.048-.113.072-.16-.032-.065-.072-.137-.104-.202a6.755 6.755 0 0 1-.184-.32c-.016-.025-.016-.049-.032-.073a1.795 1.795 0 0 1-.113-.144c-.064-.096-.12-.2-.2-.297 0 .024.008.048.008.08-.008 0-.016.008-.016.008l-.169-.41c-.008 0-.008 0-.016.009l.144.53c-.007 0-.015.007-.024.007a.527.527 0 0 1-.064-.103c-.016-.065-.064-.065-.103-.04-.025.016-.041.072-.033.096.057.136.12.273.185.41a.955.955 0 0 0 .056.136c.008.016.032.032.032.056.032.064.057.128.096.184.073.097.153.193.225.289.072.096.136.201.2.297.008.016.032.016.04.024.04.12.176.209.272.16.025.185.225.25.305.426a3.643 3.643 0 0 1-.232-.104c-.009.008-.009.016-.017.032.096.048.193.096.28.152.081.049.161.097.233.152a.731.731 0 0 0 .345.17.086.086 0 0 0-.015-.033c.224.104.456.217.633.304-.834.017-1.724.033-2.646.049 0-.152-.008-.297-.008-.45 0-.064.016-.12.007-.184-.024-.369-.024-.739-.072-1.1a7.864 7.864 0 0 1-.04-1.149c.008-.208-.008-.424-.016-.633 0-.281 0-.555.009-.835 0-.04.016-.072.032-.113h.024c.008.017 0 .04.016.049.024.024.064.064.08.056.048-.032.12-.064.136-.113.04-.096.057-.2.057-.296 0-.072.032-.12.063-.169.017-.024.025-.048.041-.08-.032-.024-.064-.04-.104-.072.032-.089.024-.193.145-.24.015-.01.015-.05.024-.073.008-.065.015-.137.024-.201a.217.217 0 0 0 .04.047.128.128 0 0 1 .016-.024c0-.032-.008-.096 0-.096.096-.016.056-.12.104-.168.008-.009-.008-.033-.008-.05 0-.015 0-.039.008-.039.111-.024.096-.144.168-.2.024-.017.032-.04.064-.08.064.111-.048.168-.056.248.136-.08.176-.273.096-.33a.476.476 0 0 0 .088-.088c.088-.096.184-.184.264-.28.057-.072.089-.16.145-.233.032-.04.096-.072.144-.097.145-.08.28-.168.369-.304.016-.016.04-.032.064-.048.024-.017.072-.017.08-.04.009-.016-.016-.057-.032-.08.032-.017.064-.049.128-.081-.024.048-.032.08-.048.113l.04.04c.072-.057.184-.12.257-.169 0-.008-.04-.04-.04-.04-.049.025-.12.064-.193.097.016-.025.016-.04.025-.048.112-.073.224-.145.344-.202.28-.128.561-.256.842-.376.048-.025.112-.008.168-.008.024 0 .04 0 .064-.008.128-.04.257-.08.385-.113a.67.67 0 0 1 .177-.024c.24.008.48.008.72.024.105.008.201.032.297.064a3.01 3.01 0 0 1 .36.152c.137.073.265.153.394.242.232.152.449.32.681.457.225.137.401.321.545.53.177.249.377.474.457.779l.12.53c.025.096.08.192.057.304-.04.201-.073.41-.105.61-.016.082-.032.162-.023.242.015.25-.081.466-.177.69-.032.073-.08.145-.12.225a.243.243 0 0 0 .063.033l.073-.145c.008 0 .008 0 .016.009-.04.112-.072.232-.113.345-.096.249-.192.505-.312.746-.064.137-.177.249-.257.378-.08.112-.144.232-.224.337a1.138 1.138 0 0 1-.24.24 6.15 6.15 0 0 1-.674.45 1.683 1.683 0 0 1-.473.177zm-4.273-.427l-.008.009c-.017-.008-.04-.016-.056-.032l-.193-.29a.091.091 0 0 1-.016-.08c.089.137.177.265.273.393zm4.987 1.1c.36-.152.657-.368.93-.618.04-.04.08-.08.128-.112.337-.209.585-.498.81-.819.256-.37.425-.787.633-1.18a.832.832 0 0 1 .048-.088c-.016.915.089 1.814.209 2.721l-2.758.096zm8.13-.24c-.009.016-.025.032-.033.048-.008-.016-.008-.04-.016-.073-.048.129-.152.065-.224.065-.433.008-.874.008-1.307.008-.417 0-.842 0-1.259.007-.136 0-.28.032-.417.04-.328.016-.657.025-.986.032-.024 0-.048-.04-.088-.071a.551.551 0 0 1-.048.072c-.009-.016-.025-.032-.04-.056a.468.468 0 0 1-.025.064h-.023c-.016-.112-.048-.216-.048-.329 0-.24.024-.481.032-.723.008-.112 0-.216 0-.32l.088.063a.678.678 0 0 1 .048-.079s-.016-.009-.032-.024c.015-.009.031-.025.031-.033.008-.024.025-.048.025-.064 0-.056-.017-.104-.025-.152.008 0 .016 0 .025-.009l.048.241h.024c-.032-.056.072-.104-.016-.168-.008-.008.008-.056.008-.08-.025-.048-.04-.096-.064-.16a.197.197 0 0 1 .056-.025c-.032-.016-.056-.032-.08-.04.08-.072.08-.112.008-.192.016-.008.032-.008.032-.016 0-.072 0-.144-.016-.216-.016-.081.024-.177-.096-.225a.24.24 0 0 0 .032.064s-.025.008-.048.024c-.105-.097-.04-.226-.064-.37.056.016.096.033.136.05-.016-.058-.056-.122-.08-.194h-.033v-.53c0 .008.056.008.089.016 0-.008.007-.016.007-.024-.024-.032-.056-.064-.088-.104l.016-.016c-.064-.08-.032-.192-.032-.217v-.562c.08.08-.04.185.08.233v-.08h-.008c-.008-.12-.008-.24-.016-.361h-.016c-.008.016-.008.024-.016.04h-.016l.048-1.919c.08.105.168.201.225.305.184.338.425.627.649.932.193.265.369.553.545.826.217.33.425.658.642.988.16.249.329.498.496.739.153.216.313.425.474.634.136.184.28.37.416.554.16.225.32.45.481.666.08.112.169.225.256.337.05.064.121.113.17.152-.008 0-.017 0-.033-.008.025.032.04.056.057.073.088.048.096.096.048.168zm.408-2.007v-.056c0 .016.008.04 0 .056zm.273-3.54c-.008 0-.056-.049-.064-.057-.008.025 0 .049-.016.08-.009-.023-.064-.015-.064-.039-.009.112.047.225.04.337.024-.016.12-.024.144-.048a.063.063 0 0 0 .032.016c-.16.12-.12.24-.048.378.016.031.064.096.016.16-.016.016.008.064.016.104h.023v.016l-.072.024c-.016-.024-.112-.072-.112-.113v.41c.08.025.08.137.112.193a.24.24 0 0 0 .033-.064l.008.007a.917.917 0 0 1-.032.145c-.016.072-.032.136-.04.209 0 .007.016.024.016.032-.088.2-.04.425-.072.633-.024.153 0 .314-.016.474a4.393 4.393 0 0 1-.08.418c-.009.024-.025.032-.065.048a.647.647 0 0 0-.008-.25c-.008 0-.113-.055-.12-.055 0 .113.063.265.088.393-.025-.008-.12-.064-.128-.064-.017.096-.017.225-.025.329-.008.08-.08.152-.088.24 0 .05.056.081.048.161h.064c0-.16.073-.304.073-.473h.023c.009.016.033.032.025.04-.016.089-.05.185-.04.273 0 .048.039.096.024.152a.782.782 0 0 0-.033.17c-.008-.041-.016-.057-.016-.08l-.088-.01c-.008.049.056.097.048.137-.008.008-.016.008-.032.017l-.265-.386a80.97 80.97 0 0 1-.625-.923 1.923 1.923 0 0 1-.145-.24 11.256 11.256 0 0 0-.826-1.23c-.232-.296-.417-.618-.633-.93-.2-.297-.4-.586-.601-.884-.072-.096-.16-.184-.225-.289-.208-.329-.393-.666-.6-.995-.177-.273-.369-.538-.554-.803-.064-.088-.128-.185-.192-.281a.112.112 0 0 1-.016-.056 12.359 12.359 0 0 1-.04-.521c0-.161.016-.322.016-.49v-.145c0-.04.008-.072.008-.112.007-.008.015-.024.023-.032-.232 0-.473-.009-.705 0-.153.007-.233-.057-.337-.17-.305-.344-.53-.738-.794-1.107a49.5 49.5 0 0 0-.761-1.044c-.209-.28-.418-.554-.626-.835-.232-.32-.457-.642-.697-.963a116.371 116.371 0 0 0-.882-1.156c-.137-.177-.29-.345-.442-.53.105.017.201.032.297.04l.385.025c.289.023.577.04.865.08.241.032.482.08.73.12.53.088 1.05.233 1.556.401.297.097.585.225.874.346.65.265 1.267.586 1.876.923.192.104.305.273.448.425.21.217.418.434.618.658.232.265.448.538.673.811.2.24.408.482.61.723.063.072.112.16.168.24.128.193.272.378.384.587.08.153.128.33.184.498.08.249.16.49.241.738.056.185.104.378.144.57.032.129.024.265.064.393.049.17 0 .353.049.522.007.017.015.04.023.057.032.031.056.064.008.112-.007.008-.007.04 0 .064.017-.016.025-.032.04-.056 0 .016.008.024.008.032 0 .031-.008.064 0 .096 0 .016.016.04.024.056.016-.017.032-.025.064-.049.072.273.08.546.08.827 0 .265.048.53-.063.787.023-.088-.033-.169-.009-.25z"/><path d="M17.591 13.976c.008 0 .016.008.016.008l-.008-.009c0-.007 0-.007-.008 0zm1.267 7.932a.759.759 0 0 1-.29.144c-.008-.008-.008-.016-.016-.024.089-.056.185-.112.273-.168.008.015.024.031.032.047zM3.825 11.03c.089-.112.177-.225.273-.337.007.008.071.024.08.032-.089.113-.209.265-.297.385-.017-.016-.04-.072-.056-.08zm-2.277 3.934c-.064-.136-.128-.281-.192-.417a.277.277 0 0 1 .072-.033c.089.128.128.28.193.418 0 0-.064.032-.072.032zm2.045-3.854c-.048.073-.096.153-.144.226-.008-.009-.097.031-.105.023.049-.072.169-.2.217-.273.008.008.016.017.032.025zM18 22.238c.008 0 .008-.008.016-.008.056.008.12.016.184.016-.105.072-.169.063-.201-.008zM3.608 11.448a.337.337 0 0 1 .04-.073c.017 0 .04-.008.04-.008.033-.056.033-.096.065-.144-.008-.008-.016-.008-.024-.016-.048.032-.096.073-.145.105.017.015.017.024.017.04-.064-.008-.089.024-.12.112-.009.024-.049.032-.09.064-.007.016-.015.057-.031.096l.008.009a.12.12 0 0 1-.04.024c-.048.048-.104.089-.152.137a.234.234 0 0 0-.016.072c.056-.056.152-.16.224-.225l.009.008c.032-.048.056-.096.088-.144.008.008.008.016.016.024-.025.064-.048.136-.072.2-.017.008-.041.025-.041.016-.032.025-.056.056-.089.08l-.144.097c-.08.072-.16.136-.248.209-.056.088-.112.168-.177.272.097-.024.12.017.113.097.112.016.12-.072.152-.136.008-.017.016-.05.032-.057.072-.064.152-.12.232-.184.017-.017.017-.05.017-.073 0-.008-.04-.008-.065-.016.072-.08.177-.216.249-.305.04-.024.08-.056.08-.08-.008-.089.048-.113.112-.145-.032-.024-.04-.048-.04-.056z"/><path d="M3.77 11.36c-.033.055-.065.103-.097.16l-.048-.025c-.032.185-.144.345-.257.377.032.016.064.032.089.025.024-.009.04-.05.056-.073l.216-.313.072-.12-.032-.033zM1.1 14.882c.04 0 .08.008.128.008 0-.032.04-.024.04-.056h.025c0 .04.008.072.008.113h-.169c-.008-.008-.04-.057-.032-.065zm-.064-.369c-.025-.024-.064-.048-.064-.072-.008-.032.016-.072.04-.112.016.056.024.104.04.16-.009.008-.017.016-.017.024zm.2-.514c.032.081.064.17.097.25a.251.251 0 0 0-.064.032c-.032-.08-.073-.169-.105-.249A.199.199 0 0 1 1.237 14zm17.847 7.676c.04-.016.087-.025.152-.04-.073.056-.129.096-.177.144-.008-.008-.016-.016-.024-.016.016-.032.032-.056.049-.088zM9.228 4.712l.137-.088.015.016c-.048.064-.088.128-.144.208-.008-.055-.008-.088-.016-.127-.008 0 0 0 .008-.008zm2.35 4.062l.232-.104c-.008.048-.008.08-.008.112a.282.282 0 0 0-.08-.016c-.049.008-.137.072-.177.08-.008 0 .032-.064.032-.072zm6.013 6.808c.016.08.168.12.016.2.024.017.048.025.072.041a.06.06 0 0 1-.016.032c-.016.008-.048.024-.064.016-.008 0-.024-.032-.024-.048 0-.072.008-.145.016-.24z"/></g></svg><svg viewBox="-1 -1 26 26" width="26" height="26" y="104" xmlns="http://www.w3.org/2000/svg"><path d="M14.31.18l.9.2.73.26.59.3.45.32.34.34.25.34.16.33.1.3.04.26.02.2-.01.13V8.5l-.05.63-.13.55-.21.46-.26.38-.3.31-.33.25-.35.19-.35.14-.33.1-.3.07-.26.04-.21.02H8.83l-.69.05-.59.14-.5.22-.41.27-.33.32-.27.35-.2.36-.15.37-.1.35-.07.32-.04.27-.02.21v3.06H3.23l-.21-.03-.28-.07-.32-.12-.35-.18-.36-.26-.36-.36-.35-.46-.32-.59-.28-.73-.21-.88-.14-1.05L0 11.97l.06-1.22.16-1.04.24-.87.32-.71.36-.57.4-.44.42-.33.42-.24.4-.16.36-.1.32-.05.24-.01h.16l.06.01h8.16v-.83H6.24l-.01-2.75-.02-.37.05-.34.11-.31.17-.28.25-.26.31-.23.38-.2.44-.18.51-.15.58-.12.64-.1.71-.06.77-.04.84-.02 1.27.05 1.07.13zm-6.3 1.98l-.23.33-.08.41.08.41.23.34.33.22.41.09.41-.09.33-.22.23-.34.08-.41-.08-.41-.23-.33-.33-.22-.41-.09-.41.09-.33.22z"/><path d="M21.1 6.11l.28.06.32.12.35.18.36.27.36.35.35.47.32.59.28.73.21.88.14 1.04.05 1.23-.06 1.23-.16 1.04-.24.86-.32.71-.36.57-.4.45-.42.33-.42.24-.4.16-.36.09-.32.05-.24.02-.16-.01h-8.22v.82h5.84l.01 2.76.02.36-.05.34-.11.31-.17.29-.25.25-.31.24-.38.2-.44.17-.51.15-.58.13-.64.09-.71.07-.77.04-.84.01-1.27-.04-1.07-.14-.9-.2-.73-.25-.59-.3-.45-.33-.34-.34-.25-.34-.16-.33-.1-.3-.04-.25-.02-.2.01-.13v-5.34l.05-.64.13-.54.21-.46.26-.38.3-.32.33-.24.35-.2.35-.14.33-.1.3-.06.26-.04.21-.02.13-.01h5.84l.69-.05.59-.14.5-.21.41-.28.33-.32.27-.35.2-.36.15-.36.1-.35.07-.32.04-.28.02-.21V6.07h2.09l.14.01.21.03zm-6.47 14.25l-.23.33-.08.41.08.41.23.33.33.23.41.08.41-.08.33-.23.23-.33.08-.41-.08-.41-.23-.33-.33-.23-.41-.08-.41.08-.33.23z"/></svg><svg viewBox="-1 -1 26 26" width="26" height="26" x="26" y="104" xmlns="http://www.w3.org/2000/svg"><circle cx="12" cy="12" r="2.139"/><path d="M6.008 16.255l-.472-.12C2.018 15.246 0 13.737 0 11.996s2.018-3.25 5.536-4.139l.472-.119.133.468a23.53 23.53 0 0 0 1.363 3.578l.101.213-.101.213a23.307 23.307 0 0 0-1.363 3.578l-.133.467zM5.317 8.95c-2.674.751-4.315 1.9-4.315 3.046 0 1.145 1.641 2.294 4.315 3.046a24.95 24.95 0 0 1 1.182-3.046A24.752 24.752 0 0 1 5.317 8.95zm12.675 7.305l-.133-.469a23.357 23.357 0 0 0-1.364-3.577l-.101-.213.101-.213a23.42 23.42 0 0 0 1.364-3.578l.133-.468.473.119c3.517.889 5.535 2.398 5.535 4.14s-2.018 3.25-5.535 4.139l-.473.12zm-.491-4.259c.48 1.039.877 2.06 1.182 3.046 2.675-.752 4.315-1.901 4.315-3.046 0-1.146-1.641-2.294-4.315-3.046a24.788 24.788 0 0 1-1.182 3.046z"/><path d="M5.31 8.945l-.133-.467C4.188 4.992 4.488 2.494 6 1.622c1.483-.856 3.864.155 6.359 2.716l.34.349-.34.349a23.552 23.552 0 0 0-2.422 2.967l-.135.193-.235.02a23.657 23.657 0 0 0-3.785.61l-.472.119zm1.896-6.63c-.268 0-.505.058-.705.173-.994.573-1.17 2.565-.485 5.253a25.122 25.122 0 0 1 3.233-.501 24.847 24.847 0 0 1 2.052-2.544c-1.56-1.519-3.037-2.381-4.095-2.381zm9.589 20.362c-.001 0-.001 0 0 0-1.425 0-3.255-1.073-5.154-3.023l-.34-.349.34-.349a23.53 23.53 0 0 0 2.421-2.968l.135-.193.234-.02a23.63 23.63 0 0 0 3.787-.609l.472-.119.134.468c.987 3.484.688 5.983-.824 6.854a2.38 2.38 0 0 1-1.205.308zm-4.096-3.381c1.56 1.519 3.037 2.381 4.095 2.381h.001c.267 0 .505-.058.704-.173.994-.573 1.171-2.566.485-5.254a25.02 25.02 0 0 1-3.234.501 24.674 24.674 0 0 1-2.051 2.545z"/><path d="M18.69 8.945l-.472-.119a23.479 23.479 0 0 0-3.787-.61l-.234-.02-.135-.193a23.414 23.414 0 0 0-2.421-2.967l-.34-.349.34-.349C14.135 1.778 16.515.767 18 1.622c1.512.872 1.812 3.37.824 6.855l-.134.468zM14.75 7.24c1.142.104 2.227.273 3.234.501.686-2.688.509-4.68-.485-5.253-.988-.571-2.845.304-4.8 2.208A24.849 24.849 0 0 1 14.75 7.24zM7.206 22.677A2.38 2.38 0 0 1 6 22.369c-1.512-.871-1.812-3.369-.823-6.854l.132-.468.472.119c1.155.291 2.429.496 3.785.609l.235.02.134.193a23.596 23.596 0 0 0 2.422 2.968l.34.349-.34.349c-1.898 1.95-3.728 3.023-5.151 3.023zm-1.19-6.427c-.686 2.688-.509 4.681.485 5.254.987.563 2.843-.305 4.8-2.208a24.998 24.998 0 0 1-2.052-2.545 24.976 24.976 0 0 1-3.233-.501z"/><path d="M12 16.878c-.823 0-1.669-.036-2.516-.106l-.235-.02-.135-.193a30.388 30.388 0 0 1-1.35-2.122 30.354 30.354 0 0 1-1.166-2.228l-.1-.213.1-.213a30.3 30.3 0 0 1 1.166-2.228c.414-.716.869-1.43 1.35-2.122l.135-.193.235-.02a29.785 29.785 0 0 1 5.033 0l.234.02.134.193a30.006 30.006 0 0 1 2.517 4.35l.101.213-.101.213a29.6 29.6 0 0 1-2.517 4.35l-.134.193-.234.02c-.847.07-1.694.106-2.517.106zm-2.197-1.084c1.48.111 2.914.111 4.395 0a29.006 29.006 0 0 0 2.196-3.798 28.585 28.585 0 0 0-2.197-3.798 29.031 29.031 0 0 0-4.394 0 28.477 28.477 0 0 0-2.197 3.798 29.114 29.114 0 0 0 2.197 3.798z"/></svg><svg viewBox="-1 -1 26 26" width="26" height="26" x="52" y="104" xmlns="http://www.w3.org/2000/svg"><path d="M12 0c6.627 0 12 5.373 12 12s-5.373 12-12 12S0 18.627 0 12 5.373 0 12 0zM9.615 15.998c.175.645.156 1.248-.024 1.792l-.065.18c-.024.061-.052.12-.078.176-.14.29-.326.56-.555.81-.698.759-1.672 1.047-2.09.805-.45-.262-.226-1.335.584-2.19.871-.918 2.12-1.509 2.12-1.509v-.003l.108-.061zm9.911-10.861c-.542-2.133-4.077-2.834-7.422-1.645-1.989.707-4.144 1.818-5.693 3.267C4.568 8.48 4.275 9.98 4.396 10.607c.427 2.211 3.457 3.657 4.703 4.73v.006c-.367.18-3.056 1.529-3.686 2.925-.675 1.47.105 2.521.615 2.655 1.575.436 3.195-.36 4.065-1.649.84-1.261.766-2.881.404-3.676.496-.135 1.08-.195 1.83-.104 2.101.24 2.521 1.56 2.43 2.1-.09.539-.523.854-.674.944-.15.091-.195.12-.181.181.015.09.091.09.21.075.165-.03 1.096-.45 1.141-1.471.045-1.29-1.186-2.729-3.375-2.7-.9.016-1.471.091-1.875.256a.362.362 0 0 0-.105-.105c-1.35-1.455-3.855-2.475-3.75-4.41.03-.705.285-2.564 4.8-4.814 3.705-1.846 6.661-1.335 7.171-.21.733 1.604-1.576 4.59-5.431 5.024-1.47.165-2.235-.404-2.431-.615-.209-.225-.239-.24-.314-.194-.12.06-.045.255 0 .375.12.3.585.825 1.396 1.095.704.225 2.43.359 4.5-.45 2.324-.899 4.139-3.405 3.614-5.505l.073.067z"/></svg><svg viewBox="-1 -1 26 26" width="26" height="26" x="78" y="104" xmlns="http://www.w3.org/2000/svg"><path d="M15.337 23.979l7.216-1.561s-2.604-17.613-2.625-17.73c-.018-.116-.114-.192-.211-.192s-1.929-.136-1.929-.136-1.275-1.274-1.439-1.411a.384.384 0 0 0-.121-.074l-.914 21.104h.023zM11.71 11.305s-.81-.424-1.774-.424c-1.447 0-1.504.906-1.504 1.141 0 1.232 3.24 1.715 3.24 4.629 0 2.295-1.44 3.76-3.406 3.76-2.354 0-3.54-1.465-3.54-1.465l.646-2.086s1.245 1.066 2.28 1.066a.944.944 0 0 0 .975-.932c0-1.619-2.654-1.694-2.654-4.359-.034-2.237 1.571-4.416 4.827-4.416 1.257 0 1.875.361 1.875.361l-.945 2.715-.02.01zM11.17.83c.136 0 .271.038.405.135-.984.465-2.064 1.639-2.508 3.992a62.82 62.82 0 0 1-1.889.578C7.697 3.75 8.951.84 11.17.84V.83zm1.235 2.949v.135c-.754.232-1.583.484-2.394.736.466-1.777 1.333-2.645 2.085-2.971.193.501.309 1.176.309 2.1zm.539-2.234c.694.074 1.141.867 1.429 1.755-.349.114-.735.231-1.158.366v-.252c0-.752-.096-1.371-.271-1.871v.002zm2.992 1.289c-.02 0-.06.021-.078.021s-.289.075-.714.21c-.423-1.233-1.176-2.37-2.508-2.37h-.115C12.135.209 11.669 0 11.265 0 8.159 0 6.675 3.877 6.21 5.846c-1.194.365-2.063.636-2.16.674-.675.213-.694.232-.772.87-.075.462-1.83 14.063-1.83 14.063L15.009 24l.927-21.166z"/></svg><svg viewBox="-1 -1 26 26" width="26" height="26" x="104" y="104" xmlns="http://www.w3.org/2000/svg"><path d="M22.655 8.719c-1.802-1.801-4.726-1.801-6.564 0l-7.351 7.35c-.45.45-.45 1.2 0 1.65.45.449 1.2.449 1.65 0l7.351-7.351a2.312 2.312 0 0 1 3.264 0c.9.9.9 2.364 0 3.264l-7.239 7.239c.9.899 2.362.899 3.263 0l5.589-5.589c1.836-1.838 1.836-4.763.037-6.563zm-2.475 2.437a1.177 1.177 0 0 0-1.65 0l-7.354 7.389a2.31 2.31 0 0 1-3.262 0c-.45-.45-1.2-.45-1.65 0s-.45 1.2 0 1.649c1.801 1.801 4.726 1.801 6.564 0l7.351-7.35c.449-.487.449-1.239.001-1.688zm-2.439-7.35c-1.801-1.801-4.726-1.801-6.564 0l-7.351 7.351c-.45.449-.45 1.199 0 1.649s1.2.45 1.65 0l7.395-7.351a2.32 2.32 0 0 1 3.27 0c.451.45 1.201.45 1.65 0 .421-.487.421-1.199-.029-1.649h-.021zm-2.475 2.437c-.45-.45-1.2-.45-1.65 0l-7.351 7.389c-.899.9-2.363.9-3.265 0a2.31 2.31 0 0 1 0-3.264l7.239-7.239c-.9-.9-2.362-.9-3.263 0L1.35 8.719c-1.8 1.8-1.8 4.725 0 6.563 1.801 1.801 4.725 1.801 6.564 0l7.35-7.351c.451-.488.451-1.238 0-1.688h.002z"/></svg><svg viewBox="-1 -1 26 26" width="26" height="26" x="130" xmlns="http://www.w3.org/2000/svg"><path d="M18.986 21.865v-6.404h2.134V24H1.844v-8.539h2.13v6.404h15.012zM6.111 19.731H16.85v-2.137H6.111v2.137zm.259-4.852l10.48 2.189.451-2.07-10.478-2.187-.453 2.068zm1.359-5.056l9.705 4.53.903-1.95-9.706-4.53-.902 1.936v.014zm2.715-4.785l8.217 6.855 1.359-1.62-8.216-6.853-1.35 1.617-.01.001zM15.751 0l-1.746 1.294 6.405 8.604 1.746-1.294L15.749 0h.002z"/></svg><svg viewBox="-1 -1 26 26" width="26" height="26" x="130" y="26" xmlns="http://www.w3.org/2000/svg"><path d="M23.954 4.569a10 10 0 0 1-2.825.775 4.958 4.958 0 0 0 2.163-2.723c-.951.555-2.005.959-3.127 1.184a4.92 4.92 0 0 0-8.384 4.482C7.691 8.094 4.066 6.13 1.64 3.161a4.822 4.822 0 0 0-.666 2.475c0 1.71.87 3.213 2.188 4.096a4.904 4.904 0 0 1-2.228-.616v.061a4.923 4.923 0 0 0 3.946 4.827 4.996 4.996 0 0 1-2.212.085 4.937 4.937 0 0 0 4.604 3.417 9.868 9.868 0 0 1-6.102 2.105c-.39 0-.779-.023-1.17-.067a13.995 13.995 0 0 0 7.557 2.209c9.054 0 13.999-7.496 13.999-13.986 0-.209 0-.42-.015-.63a9.936 9.936 0 0 0 2.46-2.548l-.047-.02z"/></svg><svg viewBox="-1 -1 26 26" width="26" height="26" x="130" y="52" xmlns="http://www.w3.org/2000/svg"><path d="M23.846 1.979L18.895 0 8.125 10.5 1.57 5.49l-1.424.705v11.64l1.41.69 6.555-4.995L18.906 24l4.948-1.949V1.995l-.012-.016h.004zM2.275 14.729V9.271l3.03 2.699-3.03 2.745v.014zm9.721-2.744L18.07 7.44v9.121l-6.074-4.576z"/></svg><svg viewBox="-1 -1 26 26" width="26" height="26" x="130" y="78" xmlns="http://www.w3.org/2000/svg"><path d="M19.197 1.608l.003-.006h-4.425L12 6.4v.002l-2.772-4.8H4.803v.005H0l12 20.786L24 1.608"/></svg><svg viewBox="-1 -1 26 26" width="26" height="26" x="130" y="104" xmlns="http://www.w3.org/2000/svg"><path d="M21.469 6.825c.84 1.537 1.318 3.3 1.318 5.175 0 3.979-2.156 7.456-5.363 9.325l3.295-9.527c.615-1.54.82-2.771.82-3.864 0-.405-.026-.78-.07-1.11m-7.981.105c.647-.03 1.232-.105 1.232-.105.582-.075.514-.93-.067-.899 0 0-1.755.135-2.88.135-1.064 0-2.85-.15-2.85-.15-.585-.03-.661.855-.075.885 0 0 .54.061 1.125.09l1.68 4.605-2.37 7.08L5.354 6.9c.649-.03 1.234-.1 1.234-.1.585-.075.516-.93-.065-.896 0 0-1.746.138-2.874.138-.2 0-.438-.008-.69-.015C4.911 3.15 8.235 1.215 12 1.215c2.809 0 5.365 1.072 7.286 2.833-.046-.003-.091-.009-.141-.009-1.06 0-1.812.923-1.812 1.914 0 .89.513 1.643 1.06 2.531.411.72.89 1.643.89 2.977 0 .915-.354 1.994-.821 3.479l-1.075 3.585-3.9-11.61.001.014zM12 22.784c-1.059 0-2.081-.153-3.048-.437l3.237-9.406 3.315 9.087c.024.053.05.101.078.149-1.12.393-2.325.609-3.582.609M1.211 12c0-1.564.336-3.05.935-4.39L7.29 21.709A10.794 10.794 0 0 1 1.211 12M12 0C5.385 0 0 5.385 0 12s5.385 12 12 12 12-5.385 12-12S18.615 0 12 0"/></svg></svg>