<?xml version="1.0" encoding="utf-8"?><svg width="334" height="196" viewBox="0 0 334 196" xmlns="http://www.w3.org/2000/svg" xmlns:xlink="http://www.w3.org/1999/xlink"><svg width="133" height="39" viewBox="0 0 133 39" id="Group" x="201" xmlns="http://www.w3.org/2000/svg"><title>Group</title><desc>Created using Figma</desc><g transform="translate(450 704)"><use xlink:href="#aa" transform="translate(-451 -713)"/><use xlink:href="#ab" transform="translate(-324 -690)"/></g><defs><path id="aa" d="M3.384 37.18a.785.785 0 0 1-.648-.324 1.649 1.649 0 0 1-.216-.864l.072-6.048c.072-2.928.108-5.196.108-6.804 0-5.592-.312-9.876-.936-12.852.36-.552.816-.828 1.368-.828.888 0 1.692.204 2.412.612a5.092 5.092 0 0 1 1.836 1.584c.936 1.392 1.404 2.952 1.404 4.68 0 1.8-.384 3.408-1.152 4.824-.768 1.416-1.884 2.52-3.348 3.312l.072 3.636.072 1.908c.024.408.036.996.036 1.764.072 1.608.108 2.916.108 3.924 0 .456-.096.816-.288 1.08-.192.264-.492.396-.9.396zm.828-14.436c.936-.888 1.62-1.812 2.052-2.772.456-.984.684-2.088.684-3.312v-.036c0-.552-.06-1.248-.18-2.088a2.776 2.776 0 0 0-.396-.864 8.983 8.983 0 0 1-.324-.504c-.168-.24-.612-.612-1.332-1.116l-.936-.684c0 1.224.072 3.12.216 5.688l.216 5.688zm12.567 14.94c-.624 0-1.2-.204-1.728-.612-.528-.384-.96-.912-1.296-1.584-.696-1.464-1.128-3.06-1.296-4.788a35.96 35.96 0 0 1-.324-4.716c0-.288.012-.528.036-.72v-.648c0-.12-.012-.18-.036-.18v-.648l.036-2.52c.024-.768.12-1.992.288-3.672.12-1.152.396-2.268.828-3.348.168-.48.384-.84.648-1.08.264-.264.564-.396.9-.396.96 0 1.824.18 2.592.54a5.282 5.282 0 0 1 1.944 1.44c.48.6.888 1.344 1.224 2.232.336.864.576 1.788.72 2.772.144 1.008.216 2.076.216 3.204v.288c0 .744.012 1.416.036 2.016l.036 2.052c0 6.912-1.608 10.368-4.824 10.368zm-.144-1.512c.432 0 .828-.168 1.188-.504.36-.36.636-.84.828-1.44.456-1.224.732-2.544.828-3.96.12-1.224.18-2.28.18-3.168 0-1.08-.084-2.496-.252-4.248-.144-1.848-.216-3.228-.216-4.14v-.648c-.048-.912-.36-1.704-.936-2.376-.552-.672-1.236-1.008-2.052-1.008-.816 0-1.356.468-1.62 1.404-.24.744-.36 1.704-.36 2.88 0 .456.012.84.036 1.152v.972l-.072 1.656a17.548 17.548 0 0 0-.072 1.656c0 1.296.036 2.58.108 3.852.096 1.8.336 3.552.72 5.256.384 1.776.948 2.664 1.692 2.664zm14.449 1.404c-.864-.288-1.932-.432-3.204-.432-.384.24-.792.36-1.224.36-.288 0-.54-.132-.756-.396a1.24 1.24 0 0 1-.288-.792c0-2.016.084-4.704.252-8.064.144-3.576.216-6.252.216-8.028v-.252c-.144-1.512-.216-2.64-.216-3.384 0-2.28.42-3.42 1.26-3.42.24 0 .444.096.612.288a.784.784 0 0 1 .288.612c0 .288-.036.744-.108 1.368a12.49 12.49 0 0 0-.108 1.368c0 1.608.012 3.06.036 4.356.024 1.272.036 2.712.036 4.32-.12.36-.18.864-.18 1.512v.432l-.072 2.844c-.048.84-.072 1.8-.072 2.88 0 1.656.396 2.484 1.188 2.484h.216c.12-.024.276-.036.468-.036a7.76 7.76 0 0 1 .828-.036c1.296 0 1.944.36 1.944 1.08 0 .24-.108.444-.324.612-.216.168-.48.276-.792.324zm7.04-.072c-.407 0-.743-.264-1.007-.792.264-.504.396-2.544.396-6.12 0-.84-.06-1.752-.18-2.736l-.108-1.044a14.514 14.514 0 0 1-.108-1.476V24.4c-.24-.6-.684-1.716-1.332-3.348-.624-1.632-1.128-3-1.512-4.104-.456-1.272-.684-2.136-.684-2.592v-.18l.828-.612c.408.048.84.576 1.296 1.584.384.888.804 2.16 1.26 3.816.48 1.656.72 2.532.72 2.628.096-.264.288-1.164.576-2.7.288-1.536.612-2.892.972-4.068.408-1.176.828-1.764 1.26-1.764.24 0 .444.072.612.216.192.144.288.324.288.54 0 1.224-.336 2.952-1.008 5.184-.72 2.424-1.08 4.176-1.08 5.256v10.836c0 1.608-.396 2.412-1.188 2.412zm12.176.072a3.868 3.868 0 0 1-1.872-.468 4.789 4.789 0 0 1-1.44-1.26c-.36-.504-.684-1.14-.972-1.908a14.139 14.139 0 0 1-.648-2.448c-.288-1.416-.48-3.276-.576-5.58a75.81 75.81 0 0 1-.036-2.844V20.8c.024-.648.036-1.32.036-2.016 0-1.416.084-2.532.252-3.348a5.678 5.678 0 0 1-.108-1.116c0-1.44.54-2.604 1.62-3.492 1.08-.888 2.448-1.332 4.104-1.332.624 0 1.2.168 1.728.504.528.336.792.756.792 1.26 0 .24-.096.432-.288.576-.192.144-.432.216-.72.216-.24 0-.504-.036-.792-.108-.264-.072-.432-.18-.504-.324h-.468v-.072c-.888 0-1.632.192-2.232.576-.432.312-.768.828-1.008 1.548-.096.264-.168.6-.216 1.008a9.62 9.62 0 0 0-.072 1.116c-.024.192-.036.576-.036 1.152l.072 1.26.036 1.224c0 .36-.048.78-.144 1.26-.12.6-.18 1.02-.18 1.26v.864c0 .936.036 2.22.108 3.852a21.73 21.73 0 0 0 .468 4.104c.216 1.272.624 2.352 1.224 3.24.576.912 1.356 1.368 2.34 1.368.408 0 .912-.216 1.512-.648.648-.432 1.104-.648 1.368-.648.336 0 .684.18 1.044.54 0 .888-.336 1.572-1.008 2.052-.624.432-1.368.708-2.232.828-.48.048-.864.072-1.152.072zm14.289-.252c-.552 0-.96-.084-1.224-.252-.264-.168-.396-.48-.396-.936 0-.72-.12-1.944-.36-3.672l-.144-.756-3.564-.54c-.144.552-.348 1.668-.612 3.348-.144 1.176-.372 1.956-.684 2.34-.168.216-.408.324-.72.324-.288 0-.552-.084-.792-.252-.24-.192-.36-.42-.36-.684l.072-.18.036-.144c1.584-6.168 2.784-12.252 3.6-18.252 0-.096.012-.252.036-.468.024-.24.048-.576.072-1.008.072-.888.144-1.596.216-2.124.096-.528.24-.924.432-1.188h1.224c.336 0 .624.084.864.252.24.144.36.36.36.648 0 1.824.252 4.536.756 8.136.48 3.696.72 6.288.72 7.776 0 .144.06.516.18 1.116.12.552.18.912.18 1.08 0 .168.12.888.36 2.16.216 1.152.324 1.896.324 2.232v.036c0 .528-.192.864-.576 1.008zm-2.376-6.912a6.934 6.934 0 0 1-.108-1.332c0-2.16-.192-4.92-.576-8.28l-.36-3.744c-1.032 5.64-1.74 9.9-2.124 12.78.36.24 1.416.432 3.168.576zm12.342 7.2c-.528 0-1.008-.576-1.44-1.728a19.645 19.645 0 0 1-1.116-3.852l-.252-1.224c-.696-3.432-1.14-5.388-1.332-5.868h-.432c0 .696-.012 1.332-.036 1.908v1.98c0 3.216.228 5.724.684 7.524l-.396.972h-1.008l-.468-.54.036-2.412c0-2.16-.108-5.436-.324-9.828-.192-4.68-.288-7.956-.288-9.828 0-1.152.396-1.728 1.188-1.728 1.296 0 2.352.336 3.168 1.008.84.672 1.26 1.608 1.26 2.808v2.52c0 .36-.06.78-.18 1.26-.12.456-.252.828-.396 1.116l-.684 1.296-.576 1.08.18.864.504 2.556c.336 1.848.66 3.348.972 4.5a17.72 17.72 0 0 0 1.152 3.132l.216.432c.24.48.36.864.36 1.152 0 .24-.072.444-.216.612a.684.684 0 0 1-.576.288zm-4.428-14.436c.528-.264.972-.984 1.332-2.16.384-1.2.576-2.304.576-3.312a7.83 7.83 0 0 0-.288-2.16c-.12-.384-.324-.672-.612-.864-.264-.216-.6-.324-1.008-.324l-.072.18-.072.324.072 4.248c.048 1.248.072 2.604.072 4.068zm9.789 14.184c-.528 0-.852-.228-.972-.684-.096-.288-.144-.696-.144-1.224 0-1.032.048-2.304.144-3.816.12-1.44.18-2.724.18-3.852 0-1.272.036-3.18.108-5.724l.072-5.688c0-.216-.036-.54-.108-.972l-.108-.9v-.18c0-.552.084-.96.252-1.224.168-.264.48-.396.936-.396.624 0 1.308.18 2.052.54.744.36 1.284.816 1.62 1.368.696 1.152 1.044 2.592 1.044 4.32 0 1.296-.108 2.388-.324 3.276a7.12 7.12 0 0 1-1.116 2.412c.648.624 1.08 1.428 1.296 2.412.24.96.36 2.172.36 3.636s-.252 2.736-.756 3.816c-.576 1.224-1.416 2.064-2.52 2.52a5.96 5.96 0 0 1-2.016.36zm1.152-13.788c1.248-.024 1.872-1.476 1.872-4.356 0-3.096-.492-4.716-1.476-4.86-.264.552-.396 1.848-.396 3.888v5.328zm-.216 11.952c.768-.168 1.368-.624 1.8-1.368.432-.744.648-1.596.648-2.556 0-1.008-.06-1.896-.18-2.664-.096-.6-.228-1.092-.396-1.476a3.888 3.888 0 0 0-.612-1.116c-.288-.36-.624-.576-1.008-.648-.096 1.368-.144 3.18-.144 5.436 0 .144-.024.6-.072 1.368l-.072 1.224c0 .048.012.084.036.108V35.524zm12.965 2.484c-.648 0-1.236-.216-1.764-.648-.528-.432-.984-1.02-1.368-1.764-.696-1.296-1.212-3.072-1.548-5.328-.24-1.56-.42-3.36-.54-5.4l-.036-1.908v-1.944a60.388 60.388 0 0 1-.036-2.268c0-1.44.06-2.712.18-3.816.096-1.152.336-2.292.72-3.42.384-.984.936-1.68 1.656-2.088a3.168 3.168 0 0 1 1.296-.288c1.272 0 2.28.504 3.024 1.512a9.336 9.336 0 0 1 1.62 3.78c.384 1.68.6 3.288.648 4.824.096 1.704.144 3.312.144 4.824v2.052c0 .408-.06 1.176-.18 2.304a21.612 21.612 0 0 0-.144 2.268v.144c-.144.672-.216 1.464-.216 2.376 0 .672-.144 1.368-.432 2.088a5.138 5.138 0 0 1-1.224 1.836c-.528.576-1.128.864-1.8.864zm.072-1.98c.48 0 .888-.444 1.224-1.332.288-.792.492-1.752.612-2.88.144-1.152.264-2.448.36-3.888.048-.624.072-1.428.072-2.412l-.036-3.312c-.048-1.296-.192-2.916-.432-4.86-.192-1.656-.552-3.12-1.08-4.392-.24-.6-.54-1.068-.9-1.404-.36-.336-.744-.504-1.152-.504-.6 0-1.044.468-1.332 1.404-.36.984-.6 2.064-.72 3.24a39.736 39.736 0 0 0-.252 3.636l-.036 1.188a20.25 20.25 0 0 0-.036 1.368v.144c0 1.608.168 3.588.504 5.94.384 3.192.948 5.46 1.692 6.804.48.84.984 1.26 1.512 1.26zm17.873 1.08c-.288 0-.504-.072-.648-.216-.144-.168-.252-.444-.324-.828l-.216-.684v-.18c0-.792-.828-3.492-2.484-8.1-1.632-4.608-2.916-8.016-3.852-10.224v18.108l.144.252c.024.048.072.132.144.252s.108.24.108.36c0 .312-.108.576-.324.792-.216.216-.48.324-.792.324-.768 0-1.152-.732-1.152-2.196l-.036-6.156a480.774 480.774 0 0 1-.036-6.192c0-.768.036-1.884.108-3.348.072-1.512.108-2.628.108-3.348 0-1.128.432-2.016 1.296-2.664v.216c.144-.048.24-.072.288-.072.552 0 1.248.96 2.088 2.88a46.322 46.322 0 0 1 1.8 4.86c.552 1.704 1.272 4.128 2.16 7.272l.36 1.296c.552 1.944.972 3.336 1.26 4.176.48-5.16.72-11.256.72-18.288v-.468a2.851 2.851 0 0 1-.036-.468c0-.72.288-1.08.864-1.08.336 0 .588.132.756.396.192.264.288.6.288 1.008v2.7a284.327 284.327 0 0 1-.432 12.024c-.24 4.32-.528 6.756-.864 7.308-.696.192-1.128.288-1.296.288zm9.055.36c-.312 0-.6-.108-.864-.324a1.151 1.151 0 0 1-.396-.792V34.696a6.94 6.94 0 0 1-.036-.756c0-.504-.036-1.272-.108-2.304l-.072-2.304c0-1.176.036-2.928.108-5.256.096-2.088.144-3.84.144-5.256 0-.336-.036-.84-.108-1.512-.072-.696-.108-1.2-.108-1.512 0-1.704.504-2.556 1.512-2.556.792 0 1.704.156 2.736.468 1.056.312 1.584.684 1.584 1.116 0 .24-.108.468-.324.684a2.2 2.2 0 0 1-.72.468c-1.008-.36-1.92-.6-2.736-.72.024.36.036.876.036 1.548 0 .96-.012 1.824-.036 2.592a45.479 45.479 0 0 0-.108 2.592l.108.576.576-.036a5.97 5.97 0 0 1 .72-.036c1.152 0 1.728.336 1.728 1.008a.887.887 0 0 1-.324.684c-.216.168-.492.252-.828.252-.432 0-.768-.024-1.008-.072h-.9c.048.624.072 1.536.072 2.736 0 1.2-.012 2.28-.036 3.24a73.29 73.29 0 0 0-.108 3.276c0 1.344.024 2.016.072 2.016l1.188-.036c.408-.024.9-.036 1.476-.036.912 0 1.368.288 1.368.864 0 .336-.156.588-.468.756-.288.192-.648.288-1.08.288h-3.06z"/><path id="ab" d="M2.04 24.168c-.24 0-.448-.064-.624-.192a.684.684 0 0 1-.24-.528v-.096c.32-.384.64-1.024.96-1.92a7.85 7.85 0 0 1 .36-.936c.944-2.096 1.632-3.984 2.064-5.664.432-1.68.648-3.456.648-5.328 0-2-.384-3.024-1.152-3.072-.256.128-.432.504-.528 1.128a1.37 1.37 0 0 1-.24.648.591.591 0 0 1-.48.24c-.384 0-.576-.248-.576-.744 0-.752.224-1.384.672-1.896.24-.256.528-.384.864-.384V5.4c.544 0 1 .12 1.368.36.272.16.528.464.768.912.128.256.248.68.36 1.272.032.288.048.56.048.816.016.24.032.416.048.528v.648c0 1.088-.136 2.272-.408 3.552-.256 1.264-.568 2.392-.936 3.384a99.773 99.773 0 0 1-1.248 3.24 58.713 58.713 0 0 0-1.08 2.88c.912-.16 1.856-.24 2.832-.24.336.24.504.464.504.672 0 .192-.104.368-.312.528-.304 0-.736.024-1.296.072l-.528.024c-.672.08-1.288.12-1.848.12z"/></defs></svg><svg width="201" height="196" viewBox="0 0 100 125" id="bee_copy" xmlns="http://www.w3.org/2000/svg"><title>Vector</title><desc>Created using Figma</desc><use xlink:href="#ba" transform="translate(26)"/><defs><path id="ba" d="M9.1-40.75q-3.8-1-8.6 1.05-5.25 2.3-8.6 7.15-3.9 5.75-3.9 13.5 0 .65.55 6.25.55 6.1.9 7.95.8 4.5 2.15 8.7 1.05 3.1 2 4.5-.1 0-.2.05-4.85 1.65-6.75 3-.65-.9-1.4-1.6Q-16.9 7.7-22 7.45q-.95-1.4.05-7.2 1-5.85.75-10.7-.3-4.85-1.95-10.35-.85-2.8-1.75-4.9-.9-2.55-1.65-3.65.3-.3.55-.75.6-1.05.6-2.25 0-3.65-3.55-3.3-3.55.35-3.55 3.55 0 .8.75 1.85.95 1.4 2.75 1.6.25 1.3 2.6 7.1 2.6 6.45 2.35 13.4-.25 6.9-1.75 12.55t-1.6 5.5q-.35-2 .25-6.4 0-3.85-.55-7-.4-2.2-1.8-7.45-2.9-7.45-4.15-9.7-.7-1.25-1.25-1.85.4-.8.65-2 0-3.2-2.85-2.75-2.9.4-2.9 3.45 0 .75.5 1.6.75 1.3 2.2 1.3.4 0 .8-.1.15.4.45.95 1.9 3.45 3.95 8.75 2 5.3 2.2 10.8.15 5.5-1.35 13.4-.2.2-.35.4-3.85 4.75-3.85 10.85v2.6q.2 3.05 1.2 5.65 3.25 8.15 13.4 8.15 5.25 0 7.9-6.9.25-.1.5-.35.35-.35.7-.35.05 0 11.95 4.1 11.85 4.1 20.45 4.1 7 0 10.95-2.25l.4.1q.7.15 2.3.4 2.35.3 5 .9.6 0 .75-.85 0-.3-1.15-3-1.3-3-1.6-3.75-.55-1.25-.95-2.3v-.15q0-4.05-3.95-9.35-3.7-4.95-9.3-9.05Q19.45 9.2 16.45 8q1.5-1.5 5-5.1Q24.9-.7 27-5.8q2.1-5.15 2.8-8 .7-2.85.7-8.5 0-11.6-5.15-15.8-4.65-3.75-11.35-.4l-1.3.7q-.8-2.15-3.6-2.95M9.05-30.6q6.25-7.1 10.55-7.1 5.4 0 7.5 7.25 1 3.6.15 14.35-.9 10.75-13.9 23.1-.95-.2-2-.4.35-.9.6-2.25.5-2.55.5-4.15 0-.85.4-1.65l-.25-.6q-.7 1.3-2.15 4.55-1.2 2.65-1.6 3.75-.8-.1-1.65-.15.6-2.9.9-9.15 0-.35-.05-.45-.1 0-.2-.1Q7.1-2.35 5.8 2.1q-.75 2.5-1.05 3.85-1.2-.05-2.15.15Q1.05 4.6.95.15q-.15-4.5.4-11.25T3-21.4q1.05-3.55 6.05-9.2m.75-5.1q-4.05 3.35-7.15 8.9Q-2.5-17.6-2.5-6.4q0 .05.55 7.25.5 4.15 1.1 5.9-1.7.4-2.6.5Q-5.4 5.1-6.3 2.05-8.5-5.05-8.5-8.4q-1.05-8.7.05-15.3-.8 3.1.5-2.55.3-1.45.8-2.7 0-.05.05-.05v-.05q2.5-6.25 9.2-8.3 8.15-2.5 7.7 1.65m-39.65 4.4q-.5-.4-.5-.85 0-1.25 1.55-1.7 1.55-.45 1.55 1.5-.1 1.5-1 1.5-1 0-1.6-.45m-6.1 6.85q-.05.35-.2.75-.35.85-1 .85-.25 0-.5-.5-.2-.4-.2-.55 0-1.7.95-1.85.95-.15.95 1.3m30.7 35.3q.8-.15 3.7-1.15 3-.8 6.05-.8 4.85 0 9.25 1.45 1.15 1 3.05 2.5 4.7 4.75 4.7 9.85 0 .05-.9 7.6-1.7 6.65-5.75 7.4l-4.05-.65q-3.8-.7-9.35-2.6 1.5-1.15 2.4-4.05 1-3.05 1-5.45 0-5.2-2.15-9.05-2.95-5.35-7.95-5.05m-5.6 10.85q0-4.7-1.3-7.85 1.55-.75 4.6-2.15 7.1 0 9.55 5.6 1.25 2.8 1.25 7.65 0 .05-.75 4.2Q1.35 33.3-.8 33.3q-1.8-.45-2.65-.65-7.9-2.85-8.3-2.85h-.05q.95-4.1.95-8.1m-16.3-9.7l.1-.1q.1-.1.25-.2-.05.05-.05.1 1-.7 2.15-1.1h.05q.05-.05.1-.05.6-.25 1.2-.35 3.95-.85 6.6 2.55 3 3.85 3 12.35 0 2.4-1.6 6.3-2.2 5.45-5.6 5.45-7.7 0-10.6-6.05-1.5-3.05-1.5-6.8 0-5.1 3-9.15 1.1-1.45 2.9-2.95M23 22.8q-.15-3.25-1.5-5.95-1.35-2.75-3.75-4.8 4.3 2.15 8.1 5.85 7.55 7.4 7.55 12.5 0 2.6-1.35 4.4-2.6 3.45-9.45 3.45-2.05 0-4.15-.15 1.75-1.7 3.05-5.15Q23.15 26 23 22.8m11.35 13.75q1.1-1.35 1.6-3.1.85 2.05 2.1 4.8l-.15.05-4.75-.5q.65-.6 1.2-1.25m-51-17q0-4.45-2.1-6.45-1.9-1.8-4.75-1.1-2.75.7-4.7 3.25-2.15 2.9-2.15 6.65 0 2.4.95 4.45 1.9 4 6.8 4 4.1 0 5.45-5.05.5-2 .5-5.75m-9.15-3.1q.3-2.6 3.45-1.95 3.15.6 2.3 3.7-.15.75-.6 1.4-.9 1.3-2.45 1.3-1.75 0-2.5-1.1-.55-.8-.2-3.35z"/></defs></svg></svg>