<svg width="201" height="196" viewBox="0 0 100 125" version="1.1" xmlns="http://www.w3.org/2000/svg" xmlns:xlink="http://www.w3.org/1999/xlink">
<title>Vector</title>
<desc>Created using Figma</desc>
<g id="Canvas" transform="translate(0 308)">
<g id="Vector">
<use xlink:href="#path0_fill" transform="translate(26 -308)"/>
</g>
</g>
<defs>
<path id="path0_fill" d=" M 9.1 -40.75 Q 5.3 -41.75 0.5 -39.7 -4.75 -37.4 -8.1 -32.55 -12 -26.8 -12 -19.05 -12 -18.4 -11.45 -12.8 -10.9 -6.7 -10.55 -4.85 -9.75 -0.35 -8.4 3.85 -7.35 6.95 -6.4 8.35 -6.5 8.35 -6.6 8.4 -11.45 10.05 -13.35 11.4 -14 10.5 -14.75 9.8 -16.9 7.7 -22 7.45 -22.95 6.05 -21.95 0.25 -20.95 -5.6 -21.2 -10.45 -21.5 -15.3 -23.15 -20.8 -24 -23.6 -24.9 -25.7 -25.8 -28.25 -26.55 -29.35 -26.25 -29.65 -26 -30.1 -25.4 -31.15 -25.4 -32.35 -25.4 -36 -28.95 -35.65 -32.5 -35.3 -32.5 -32.1 -32.5 -31.3 -31.75 -30.25 -30.8 -28.85 -29 -28.65 -28.75 -27.35 -26.4 -21.55 -23.8 -15.1 -24.05 -8.15 -24.3 -1.25 -25.8 4.4 -27.3 10.05 -27.4 9.9 -27.75 7.9 -27.15 3.5 -27.15 -0.35 -27.7 -3.5 -28.1 -5.7 -29.5 -10.95 -32.4 -18.4 -33.65 -20.65 -34.35 -21.9 -34.9 -22.5 -34.5 -23.3 -34.25 -24.5 -34.25 -27.7 -37.1 -27.25 -40 -26.85 -40 -23.8 -40 -23.05 -39.5 -22.2 -38.75 -20.9 -37.3 -20.9 -36.9 -20.9 -36.5 -21 -36.35 -20.6 -36.05 -20.05 -34.15 -16.6 -32.1 -11.3 -30.1 -6 -29.9 -0.5 -29.75 5 -31.25 12.9 -31.45 13.1 -31.6 13.3 -35.45 18.05 -35.45 24.15 L -35.45 26.75 Q -35.25 29.8 -34.25 32.4 -31 40.55 -20.85 40.55 -15.6 40.55 -12.95 33.65 -12.7 33.55 -12.45 33.3 -12.1 32.95 -11.75 32.95 -11.7 32.95 0.2 37.05 12.05 41.15 20.65 41.15 27.65 41.15 31.6 38.9 31.8 38.95 32 39 32.7 39.15 34.3 39.4 36.65 39.7 39.3 40.3 39.9 40.3 40.05 39.45 40.05 39.15 38.9 36.45 37.6 33.45 37.3 32.7 36.75 31.45 36.35 30.4 36.35 30.3 36.35 30.25 36.35 26.2 32.4 20.9 28.7 15.95 23.1 11.85 19.45 9.2 16.45 8 17.95 6.5 21.45 2.9 24.9 -0.7 27 -5.8 29.1 -10.95 29.8 -13.8 30.5 -16.65 30.5 -22.3 30.5 -33.9 25.35 -38.1 20.7 -41.85 14 -38.5 13.35 -38.15 12.7 -37.8 11.9 -39.95 9.1 -40.75 M 9.05 -30.6 Q 15.3 -37.7 19.6 -37.7 25 -37.7 27.1 -30.45 28.1 -26.85 27.25 -16.1 26.35 -5.35 13.35 7 12.4 6.8 11.35 6.6 11.7 5.7 11.95 4.35 12.45 1.8 12.45 0.2 12.45 -0.65 12.85 -1.45 L 12.6 -2.05 Q 11.9 -0.75 10.45 2.5 9.25 5.15 8.85 6.25 8.05 6.15 7.2 6.1 7.8 3.2 8.1 -3.05 8.1 -3.4 8.05 -3.5 7.95 -3.5 7.85 -3.6 7.1 -2.35 5.8 2.1 5.05 4.6 4.75 5.95 3.55 5.9 2.6 6.1 1.05 4.6 0.95 0.15 0.8 -4.35 1.35 -11.1 1.9 -17.85 3 -21.4 4.05 -24.95 9.05 -30.6 M 9.8 -35.7 Q 5.75 -32.35 2.65 -26.8 -2.5 -17.6 -2.5 -6.4 -2.5 -6.35 -1.95 0.85 -1.45 5 -0.85 6.75 -2.55 7.15 -3.45 7.25 -5.4 5.1 -6.3 2.05 -8.5 -5.05 -8.5 -8.4 -9.55 -17.1 -8.45 -23.7 -9.25 -20.6 -7.95 -26.25 -7.65 -27.7 -7.15 -28.95 -7.15 -29 -7.1 -29 L -7.1 -29.05 Q -4.6 -35.3 2.1 -37.35 10.25 -39.85 9.8 -35.7 M -29.85 -31.3 Q -30.35 -31.7 -30.35 -32.15 -30.35 -33.4 -28.8 -33.85 -27.25 -34.3 -27.25 -32.35 -27.35 -30.85 -28.25 -30.85 -29.25 -30.85 -29.85 -31.3 M -35.95 -24.45 Q -36 -24.1 -36.15 -23.7 -36.5 -22.85 -37.15 -22.85 -37.4 -22.85 -37.65 -23.35 -37.85 -23.75 -37.85 -23.9 -37.85 -25.6 -36.9 -25.75 -35.95 -25.9 -35.95 -24.45 M -5.25 10.85 Q -4.45 10.7 -1.55 9.7 1.45 8.9 4.5 8.9 9.35 8.9 13.75 10.35 14.9 11.35 16.8 12.85 21.5 17.6 21.5 22.7 21.5 22.75 20.6 30.3 18.9 36.95 14.85 37.7 13.6 37.5 10.8 37.05 7 36.35 1.45 34.45 2.95 33.3 3.85 30.4 4.85 27.35 4.85 24.95 4.85 19.75 2.7 15.9 -0.25 10.55 -5.25 10.85 M -10.85 21.7 Q -10.85 17 -12.15 13.85 -10.6 13.1 -7.55 11.7 -0.45 11.7 2 17.3 3.25 20.1 3.25 24.95 3.25 25 2.5 29.15 1.35 33.3 -0.8 33.3 -2.6 32.85 -3.45 32.65 -11.35 29.8 -11.75 29.8 L -11.8 29.8 Q -10.85 25.7 -10.85 21.7 M -27.15 12 Q -27.1 11.95 -27.05 11.9 -26.95 11.8 -26.8 11.7 -26.85 11.75 -26.85 11.8 -25.85 11.1 -24.7 10.7 L -24.65 10.7 Q -24.6 10.65 -24.55 10.65 -23.95 10.4 -23.35 10.3 -19.4 9.45 -16.75 12.85 -13.75 16.7 -13.75 25.2 -13.75 27.6 -15.35 31.5 -17.55 36.95 -20.95 36.95 -28.65 36.95 -31.55 30.9 -33.05 27.85 -33.05 24.1 -33.05 19 -30.05 14.95 -28.95 13.5 -27.15 12 M 23 22.8 Q 22.85 19.55 21.5 16.85 20.15 14.1 17.75 12.05 22.05 14.2 25.85 17.9 33.4 25.3 33.4 30.4 33.4 33 32.05 34.8 29.45 38.25 22.6 38.25 20.55 38.25 18.45 38.1 20.2 36.4 21.5 32.95 23.15 26 23 22.8 M 34.35 36.55 Q 35.45 35.2 35.95 33.45 36.8 35.5 38.05 38.25 L 37.9 38.3 33.15 37.8 Q 33.8 37.2 34.35 36.55 M -16.65 19.55 Q -16.65 15.1 -18.75 13.1 -20.65 11.3 -23.5 12 -26.25 12.7 -28.2 15.25 -30.35 18.15 -30.35 21.9 -30.35 24.3 -29.4 26.35 -27.5 30.35 -22.6 30.35 -18.5 30.35 -17.15 25.3 -16.65 23.3 -16.65 19.55 M -25.8 16.45 Q -25.5 13.85 -22.35 14.5 -19.2 15.1 -20.05 18.2 -20.2 18.95 -20.65 19.6 -21.55 20.9 -23.1 20.9 -24.85 20.9 -25.6 19.8 -26.15 19 -25.8 16.45 Z"/>
</defs>
</svg>
