<svg width="133" height="39" viewBox="0 0 133 39" version="1.1" xmlns="http://www.w3.org/2000/svg" xmlns:xlink="http://www.w3.org/1999/xlink">
<title>Group</title>
<desc>Created using Figma</desc>
<g id="Canvas" transform="translate(450 704)">
<g id="Group">
<g id="PolyCarbOne">
<use xlink:href="#path0_fill" transform="translate(-451 -713)"/>
</g>
<g id="2">
<use xlink:href="#path1_fill" transform="translate(-324 -690)"/>
</g>
</g>
</g>
<defs>
<path id="path0_fill" d="M 3.384 37.18C 3.12 37.18 2.904 37.072 2.736 36.856C 2.592 36.616 2.52 36.328 2.52 35.992L 2.592 29.944C 2.664 27.016 2.7 24.748 2.7 23.14C 2.7 17.548 2.388 13.264 1.764 10.288C 2.124 9.736 2.58 9.46 3.132 9.46C 4.02 9.46 4.824 9.664 5.544 10.072C 6.288 10.456 6.9 10.984 7.38 11.656C 8.316 13.048 8.784 14.608 8.784 16.336C 8.784 18.136 8.4 19.744 7.632 21.16C 6.864 22.576 5.748 23.68 4.284 24.472L 4.356 28.108L 4.428 30.016C 4.452 30.424 4.464 31.012 4.464 31.78C 4.536 33.388 4.572 34.696 4.572 35.704C 4.572 36.16 4.476 36.52 4.284 36.784C 4.092 37.048 3.792 37.18 3.384 37.18ZM 4.212 22.744C 5.148 21.856 5.832 20.932 6.264 19.972C 6.72 18.988 6.948 17.884 6.948 16.66L 6.948 16.624C 6.948 16.072 6.888 15.376 6.768 14.536C 6.696 14.248 6.564 13.96 6.372 13.672C 6.18 13.384 6.072 13.216 6.048 13.168C 5.88 12.928 5.436 12.556 4.716 12.052L 3.78 11.368C 3.78 12.592 3.852 14.488 3.996 17.056L 4.212 22.744ZM 16.7791 37.684C 16.1551 37.684 15.5791 37.48 15.0511 37.072C 14.5231 36.688 14.0911 36.16 13.7551 35.488C 13.0591 34.024 12.6271 32.428 12.4591 30.7C 12.2431 29.068 12.1351 27.496 12.1351 25.984C 12.1351 25.696 12.1471 25.456 12.1711 25.264L 12.1711 24.616C 12.1711 24.496 12.1591 24.436 12.1351 24.436L 12.1351 23.788L 12.1711 21.268C 12.1951 20.5 12.2911 19.276 12.4591 17.596C 12.5791 16.444 12.8551 15.328 13.2871 14.248C 13.4551 13.768 13.6711 13.408 13.9351 13.168C 14.1991 12.904 14.4991 12.772 14.8351 12.772C 15.7951 12.772 16.6591 12.952 17.4271 13.312C 18.1951 13.648 18.8431 14.128 19.3711 14.752C 19.8511 15.352 20.2591 16.096 20.5951 16.984C 20.9311 17.848 21.1711 18.772 21.3151 19.756C 21.4591 20.764 21.5311 21.832 21.5311 22.96L 21.5311 23.248C 21.5311 23.992 21.5431 24.664 21.5671 25.264L 21.6031 27.316C 21.6031 34.228 19.9951 37.684 16.7791 37.684ZM 16.6351 36.172C 17.0671 36.172 17.4631 36.004 17.8231 35.668C 18.1831 35.308 18.4591 34.828 18.6511 34.228C 19.1071 33.004 19.3831 31.684 19.4791 30.268C 19.5991 29.044 19.6591 27.988 19.6591 27.1C 19.6591 26.02 19.5751 24.604 19.4071 22.852C 19.2631 21.004 19.1911 19.624 19.1911 18.712L 19.1911 18.064C 19.1431 17.152 18.8311 16.36 18.2551 15.688C 17.7031 15.016 17.0191 14.68 16.2031 14.68C 15.3871 14.68 14.8471 15.148 14.5831 16.084C 14.3431 16.828 14.2231 17.788 14.2231 18.964C 14.2231 19.42 14.2351 19.804 14.2591 20.116L 14.2591 21.088L 14.1871 22.744C 14.1391 23.248 14.1151 23.8 14.1151 24.4C 14.1151 25.696 14.1511 26.98 14.2231 28.252C 14.3191 30.052 14.5591 31.804 14.9431 33.508C 15.3271 35.284 15.8911 36.172 16.6351 36.172ZM 31.0838 37.576C 30.2198 37.288 29.1517 37.144 27.8798 37.144C 27.4958 37.384 27.0877 37.504 26.6558 37.504C 26.3678 37.504 26.1158 37.372 25.8998 37.108C 25.7078 36.868 25.6118 36.604 25.6118 36.316C 25.6118 34.3 25.6958 31.612 25.8637 28.252C 26.0077 24.676 26.0798 22 26.0798 20.224L 26.0798 19.972C 25.9358 18.46 25.8637 17.332 25.8637 16.588C 25.8637 14.308 26.2838 13.168 27.1238 13.168C 27.3637 13.168 27.5678 13.264 27.7357 13.456C 27.9277 13.624 28.0237 13.828 28.0237 14.068C 28.0237 14.356 27.9877 14.812 27.9157 15.436C 27.8438 16.036 27.8077 16.492 27.8077 16.804C 27.8077 18.412 27.8197 19.864 27.8438 21.16C 27.8678 22.432 27.8798 23.872 27.8798 25.48C 27.7598 25.84 27.6998 26.344 27.6998 26.992L 27.6998 27.424L 27.6277 30.268C 27.5797 31.108 27.5557 32.068 27.5557 33.148C 27.5557 34.804 27.9518 35.632 28.7437 35.632C 28.7917 35.632 28.8637 35.632 28.9597 35.632C 29.0798 35.608 29.2357 35.596 29.4277 35.596C 29.6437 35.572 29.9198 35.56 30.2557 35.56C 31.5517 35.56 32.1998 35.92 32.1998 36.64C 32.1998 36.88 32.0917 37.084 31.8758 37.252C 31.6597 37.42 31.3958 37.528 31.0838 37.576ZM 38.1246 37.504C 37.7166 37.504 37.3806 37.24 37.1166 36.712C 37.3806 36.208 37.5126 34.168 37.5126 30.592C 37.5126 29.752 37.4526 28.84 37.3326 27.856L 37.2246 26.812C 37.1526 26.164 37.1166 25.672 37.1166 25.336L 37.1166 24.4C 36.8766 23.8 36.4326 22.684 35.7846 21.052C 35.1606 19.42 34.6566 18.052 34.2726 16.948C 33.8166 15.676 33.5886 14.812 33.5886 14.356L 33.5886 14.176L 34.4166 13.564C 34.8246 13.612 35.2566 14.14 35.7126 15.148C 36.0966 16.036 36.5166 17.308 36.9726 18.964C 37.4526 20.62 37.6926 21.496 37.6926 21.592C 37.7886 21.328 37.9806 20.428 38.2686 18.892C 38.5566 17.356 38.8806 16 39.2406 14.824C 39.6486 13.648 40.0686 13.06 40.5006 13.06C 40.7406 13.06 40.9446 13.132 41.1126 13.276C 41.3046 13.42 41.4006 13.6 41.4006 13.816C 41.4006 15.04 41.0646 16.768 40.3926 19C 39.6726 21.424 39.3126 23.176 39.3126 24.256L 39.3126 35.092C 39.3126 36.7 38.9166 37.504 38.1246 37.504ZM 50.2999 37.576C 49.6279 37.576 49.0039 37.42 48.4279 37.108C 47.8759 36.796 47.3959 36.376 46.9879 35.848C 46.6279 35.344 46.3039 34.708 46.0159 33.94C 45.7279 33.148 45.5119 32.332 45.3679 31.492C 45.0799 30.076 44.8879 28.216 44.7919 25.912C 44.7679 25.36 44.7559 24.412 44.7559 23.068L 44.7559 20.8C 44.7799 20.152 44.7919 19.48 44.7919 18.784C 44.7919 17.368 44.8759 16.252 45.0439 15.436C 44.9719 15.076 44.9359 14.704 44.9359 14.32C 44.9359 12.88 45.4759 11.716 46.5559 10.828C 47.6359 9.94 49.0039 9.496 50.6599 9.496C 51.2839 9.496 51.8599 9.664 52.3879 10C 52.9159 10.336 53.1799 10.756 53.1799 11.26C 53.1799 11.5 53.0839 11.692 52.8919 11.836C 52.6999 11.98 52.4599 12.052 52.1719 12.052C 51.9319 12.052 51.6679 12.016 51.3799 11.944C 51.1159 11.872 50.9479 11.764 50.8759 11.62L 50.4079 11.62L 50.4079 11.548C 49.5199 11.548 48.7759 11.74 48.1759 12.124C 47.7439 12.436 47.4079 12.952 47.1679 13.672C 47.0719 13.936 46.9999 14.272 46.9519 14.68C 46.9039 15.088 46.8799 15.46 46.8799 15.796C 46.8559 15.988 46.8439 16.372 46.8439 16.948L 46.9159 18.208L 46.9519 19.432C 46.9519 19.792 46.9039 20.212 46.8079 20.692C 46.6879 21.292 46.6279 21.712 46.6279 21.952L 46.6279 22.816C 46.6279 23.752 46.6639 25.036 46.7359 26.668C 46.7599 28.036 46.9159 29.404 47.2039 30.772C 47.4199 32.044 47.8279 33.124 48.4279 34.012C 49.0039 34.924 49.7839 35.38 50.7679 35.38C 51.1759 35.38 51.6799 35.164 52.2799 34.732C 52.9279 34.3 53.3839 34.084 53.6479 34.084C 53.9839 34.084 54.3319 34.264 54.6919 34.624C 54.6919 35.512 54.3559 36.196 53.6839 36.676C 53.0599 37.108 52.3159 37.384 51.4519 37.504C 50.9719 37.552 50.5879 37.576 50.2999 37.576ZM 64.5888 37.324C 64.0368 37.324 63.6288 37.24 63.3648 37.072C 63.1008 36.904 62.9688 36.592 62.9688 36.136C 62.9688 35.416 62.8488 34.192 62.6088 32.464L 62.4648 31.708L 58.9008 31.168C 58.7568 31.72 58.5528 32.836 58.2888 34.516C 58.1448 35.692 57.9168 36.472 57.6048 36.856C 57.4368 37.072 57.1968 37.18 56.8848 37.18C 56.5968 37.18 56.3328 37.096 56.0928 36.928C 55.8528 36.736 55.7328 36.508 55.7328 36.244L 55.8048 36.064L 55.8408 35.92C 57.4248 29.752 58.6248 23.668 59.4408 17.668C 59.4408 17.572 59.4528 17.416 59.4768 17.2C 59.5008 16.96 59.5248 16.624 59.5488 16.192C 59.6208 15.304 59.6928 14.596 59.7648 14.068C 59.8608 13.54 60.0048 13.144 60.1968 12.88L 61.4208 12.88C 61.7568 12.88 62.0448 12.964 62.2848 13.132C 62.5248 13.276 62.6448 13.492 62.6448 13.78C 62.6448 15.604 62.8968 18.316 63.4008 21.916C 63.8808 25.612 64.1208 28.204 64.1208 29.692C 64.1208 29.836 64.1808 30.208 64.3008 30.808C 64.4208 31.36 64.4808 31.72 64.4808 31.888C 64.4808 32.056 64.6008 32.776 64.8408 34.048C 65.0568 35.2 65.1648 35.944 65.1648 36.28L 65.1648 36.316C 65.1648 36.844 64.9728 37.18 64.5888 37.324ZM 62.2128 30.412C 62.1408 30.052 62.1048 29.608 62.1048 29.08C 62.1048 26.92 61.9128 24.16 61.5288 20.8L 61.1688 17.056C 60.1368 22.696 59.4288 26.956 59.0448 29.836C 59.4048 30.076 60.4608 30.268 62.2128 30.412ZM 74.5546 37.612C 74.0266 37.612 73.5466 37.036 73.1146 35.884C 72.6106 34.636 72.2386 33.352 71.9986 32.032L 71.7466 30.808C 71.0506 27.376 70.6066 25.42 70.4146 24.94L 69.9826 24.94C 69.9826 25.636 69.9706 26.272 69.9466 26.848L 69.9466 28.828C 69.9466 32.044 70.1746 34.552 70.6306 36.352L 70.2346 37.324L 69.2266 37.324L 68.7586 36.784L 68.7946 34.372C 68.7946 32.212 68.6866 28.936 68.4706 24.544C 68.2786 19.864 68.1826 16.588 68.1826 14.716C 68.1826 13.564 68.5786 12.988 69.3706 12.988C 70.6666 12.988 71.7226 13.324 72.5386 13.996C 73.3786 14.668 73.7986 15.604 73.7986 16.804L 73.7986 19.324C 73.7986 19.684 73.7386 20.104 73.6186 20.584C 73.4986 21.04 73.3666 21.412 73.2226 21.7L 72.5386 22.996L 71.9626 24.076L 72.1426 24.94L 72.6466 27.496C 72.9826 29.344 73.3066 30.844 73.6186 31.996C 73.9306 33.148 74.3146 34.192 74.7706 35.128L 74.9866 35.56C 75.2266 36.04 75.3466 36.424 75.3466 36.712C 75.3466 36.952 75.2746 37.156 75.1306 37.324C 74.9866 37.516 74.7946 37.612 74.5546 37.612ZM 70.1266 23.176C 70.6546 22.912 71.0986 22.192 71.4586 21.016C 71.8426 19.816 72.0346 18.712 72.0346 17.704C 72.0346 16.936 71.9386 16.216 71.7466 15.544C 71.6266 15.16 71.4226 14.872 71.1346 14.68C 70.8706 14.464 70.5346 14.356 70.1266 14.356L 70.0546 14.536L 69.9826 14.86L 70.0546 19.108C 70.1026 20.356 70.1266 21.712 70.1266 23.176ZM 79.9158 37.36C 79.3878 37.36 79.0638 37.132 78.9438 36.676C 78.8478 36.388 78.7998 35.98 78.7998 35.452C 78.7998 34.42 78.8478 33.148 78.9438 31.636C 79.0638 30.196 79.1238 28.912 79.1238 27.784C 79.1238 26.512 79.1598 24.604 79.2318 22.06L 79.3038 16.372C 79.3038 16.156 79.2678 15.832 79.1958 15.4L 79.0878 14.5L 79.0878 14.32C 79.0878 13.768 79.1718 13.36 79.3398 13.096C 79.5078 12.832 79.8198 12.7 80.2758 12.7C 80.8998 12.7 81.5838 12.88 82.3278 13.24C 83.0718 13.6 83.6118 14.056 83.9478 14.608C 84.6438 15.76 84.9918 17.2 84.9918 18.928C 84.9918 20.224 84.8838 21.316 84.6678 22.204C 84.4518 23.068 84.0798 23.872 83.5518 24.616C 84.1998 25.24 84.6318 26.044 84.8478 27.028C 85.0878 27.988 85.2078 29.2 85.2078 30.664C 85.2078 32.128 84.9558 33.4 84.4518 34.48C 83.8758 35.704 83.0358 36.544 81.9318 37C 81.2598 37.24 80.5878 37.36 79.9158 37.36ZM 81.0678 23.572C 82.3158 23.548 82.9398 22.096 82.9398 19.216C 82.9398 16.12 82.4478 14.5 81.4638 14.356C 81.1998 14.908 81.0678 16.204 81.0678 18.244L 81.0678 23.572ZM 80.8518 35.524C 81.6198 35.356 82.2198 34.9 82.6518 34.156C 83.0838 33.412 83.2998 32.56 83.2998 31.6C 83.2998 30.592 83.2398 29.704 83.1198 28.936C 83.0238 28.336 82.8918 27.844 82.7238 27.46C 82.5798 27.052 82.3758 26.68 82.1118 26.344C 81.8238 25.984 81.4878 25.768 81.1038 25.696C 81.0078 27.064 80.9598 28.876 80.9598 31.132C 80.9598 31.276 80.9358 31.732 80.8878 32.5L 80.8158 33.724C 80.8158 33.772 80.8278 33.808 80.8518 33.832L 80.8518 33.904L 80.8518 35.524ZM 93.8174 38.008C 93.1694 38.008 92.5814 37.792 92.0534 37.36C 91.5254 36.928 91.0694 36.34 90.6854 35.596C 89.9894 34.3 89.4734 32.524 89.1374 30.268C 88.8974 28.708 88.7174 26.908 88.5974 24.868L 88.5614 22.96L 88.5614 21.016C 88.5374 20.392 88.5254 19.636 88.5254 18.748C 88.5254 17.308 88.5854 16.036 88.7054 14.932C 88.8014 13.78 89.0414 12.64 89.4254 11.512C 89.8094 10.528 90.3614 9.832 91.0814 9.424C 91.5134 9.232 91.9454 9.136 92.3774 9.136C 93.6494 9.136 94.6574 9.64 95.4014 10.648C 96.2174 11.776 96.7574 13.036 97.0214 14.428C 97.4054 16.108 97.6214 17.716 97.6694 19.252C 97.7654 20.956 97.8134 22.564 97.8134 24.076L 97.8134 26.128C 97.8134 26.536 97.7534 27.304 97.6334 28.432C 97.5374 29.32 97.4894 30.076 97.4894 30.7L 97.4894 30.844C 97.3454 31.516 97.2734 32.308 97.2734 33.22C 97.2734 33.892 97.1294 34.588 96.8414 35.308C 96.5534 36.028 96.1454 36.64 95.6174 37.144C 95.0894 37.72 94.4894 38.008 93.8174 38.008ZM 93.8894 36.028C 94.3694 36.028 94.7774 35.584 95.1134 34.696C 95.4014 33.904 95.6054 32.944 95.7254 31.816C 95.8694 30.664 95.9894 29.368 96.0854 27.928C 96.1334 27.304 96.1574 26.5 96.1574 25.516L 96.1214 22.204C 96.0734 20.908 95.9294 19.288 95.6894 17.344C 95.4974 15.688 95.1374 14.224 94.6094 12.952C 94.3694 12.352 94.0694 11.884 93.7094 11.548C 93.3494 11.212 92.9654 11.044 92.5574 11.044C 91.9574 11.044 91.5134 11.512 91.2254 12.448C 90.8654 13.432 90.6254 14.512 90.5054 15.688C 90.3614 16.96 90.2774 18.172 90.2534 19.324L 90.2174 20.512C 90.1934 20.848 90.1814 21.304 90.1814 21.88L 90.1814 22.024C 90.1814 23.632 90.3494 25.612 90.6854 27.964C 91.0694 31.156 91.6334 33.424 92.3774 34.768C 92.8574 35.608 93.3614 36.028 93.8894 36.028ZM 111.762 37.108C 111.474 37.108 111.258 37.036 111.114 36.892C 110.97 36.724 110.862 36.448 110.79 36.064L 110.574 35.38L 110.574 35.308L 110.574 35.2C 110.574 34.408 109.746 31.708 108.09 27.1C 106.458 22.492 105.174 19.084 104.238 16.876L 104.238 34.984L 104.382 35.236C 104.406 35.284 104.454 35.368 104.526 35.488C 104.598 35.608 104.634 35.728 104.634 35.848C 104.634 36.16 104.526 36.424 104.31 36.64C 104.094 36.856 103.83 36.964 103.518 36.964C 102.75 36.964 102.366 36.232 102.366 34.768L 102.33 28.612C 102.306 26.764 102.294 24.7 102.294 22.42C 102.294 21.652 102.33 20.536 102.402 19.072C 102.474 17.56 102.51 16.444 102.51 15.724C 102.51 14.596 102.942 13.708 103.806 13.06L 103.806 13.276C 103.95 13.228 104.046 13.204 104.094 13.204C 104.646 13.204 105.342 14.164 106.182 16.084C 106.854 17.62 107.454 19.24 107.982 20.944C 108.534 22.648 109.254 25.072 110.142 28.216L 110.502 29.512C 111.054 31.456 111.474 32.848 111.762 33.688C 112.242 28.528 112.482 22.432 112.482 15.4L 112.482 14.932C 112.458 14.788 112.446 14.632 112.446 14.464C 112.446 13.744 112.734 13.384 113.31 13.384C 113.646 13.384 113.898 13.516 114.066 13.78C 114.258 14.044 114.354 14.38 114.354 14.788L 114.354 17.488C 114.306 21.184 114.162 25.192 113.922 29.512C 113.682 33.832 113.394 36.268 113.058 36.82C 112.362 37.012 111.93 37.108 111.762 37.108ZM 120.817 37.468C 120.505 37.468 120.217 37.36 119.953 37.144C 119.713 36.928 119.581 36.664 119.557 36.352L 119.557 35.416L 119.557 34.696C 119.533 34.48 119.521 34.228 119.521 33.94C 119.521 33.436 119.485 32.668 119.413 31.636L 119.341 29.332C 119.341 28.156 119.377 26.404 119.449 24.076C 119.545 21.988 119.593 20.236 119.593 18.82C 119.593 18.484 119.557 17.98 119.485 17.308C 119.413 16.612 119.377 16.108 119.377 15.796C 119.377 14.092 119.881 13.24 120.889 13.24C 121.681 13.24 122.593 13.396 123.625 13.708C 124.681 14.02 125.209 14.392 125.209 14.824C 125.209 15.064 125.101 15.292 124.885 15.508C 124.693 15.7 124.453 15.856 124.165 15.976C 123.157 15.616 122.245 15.376 121.429 15.256C 121.453 15.616 121.465 16.132 121.465 16.804C 121.465 17.764 121.453 18.628 121.429 19.396C 121.357 20.548 121.321 21.412 121.321 21.988L 121.429 22.564L 122.005 22.528C 122.197 22.504 122.437 22.492 122.725 22.492C 123.877 22.492 124.453 22.828 124.453 23.5C 124.453 23.764 124.345 23.992 124.129 24.184C 123.913 24.352 123.637 24.436 123.301 24.436C 122.869 24.436 122.533 24.412 122.293 24.364L 121.393 24.364C 121.441 24.988 121.465 25.9 121.465 27.1C 121.465 28.3 121.453 29.38 121.429 30.34C 121.357 31.804 121.321 32.896 121.321 33.616C 121.321 34.96 121.345 35.632 121.393 35.632L 122.581 35.596C 122.989 35.572 123.481 35.56 124.057 35.56C 124.969 35.56 125.425 35.848 125.425 36.424C 125.425 36.76 125.269 37.012 124.957 37.18C 124.669 37.372 124.309 37.468 123.877 37.468L 120.817 37.468Z"/>
<path id="path1_fill" d="M 2.04 24.168C 1.8 24.168 1.592 24.104 1.416 23.976C 1.256 23.832 1.176 23.656 1.176 23.448L 1.176 23.352C 1.496 22.968 1.816 22.328 2.136 21.432C 2.28 21 2.4 20.688 2.496 20.496C 3.44 18.4 4.128 16.512 4.56 14.832C 4.992 13.152 5.208 11.376 5.208 9.504C 5.208 7.504 4.824 6.48 4.056 6.432C 3.8 6.56 3.624 6.936 3.528 7.56C 3.496 7.816 3.416 8.032 3.288 8.208C 3.16 8.368 3 8.448 2.808 8.448C 2.424 8.448 2.232 8.2 2.232 7.704C 2.232 6.952 2.456 6.32 2.904 5.808C 3.144 5.552 3.432 5.424 3.768 5.424L 3.768 5.4C 4.312 5.4 4.768 5.52 5.136 5.76C 5.408 5.92 5.664 6.224 5.904 6.672C 6.032 6.928 6.152 7.352 6.264 7.944C 6.296 8.232 6.312 8.504 6.312 8.76C 6.328 9 6.344 9.176 6.36 9.288L 6.36 9.936C 6.36 11.024 6.224 12.208 5.952 13.488C 5.696 14.752 5.384 15.88 5.016 16.872C 4.6 18.008 4.184 19.088 3.768 20.112C 3.272 21.36 2.912 22.32 2.688 22.992C 3.6 22.832 4.544 22.752 5.52 22.752C 5.856 22.992 6.024 23.216 6.024 23.424C 6.024 23.616 5.92 23.792 5.712 23.952C 5.408 23.952 4.976 23.976 4.416 24.024L 3.888 24.048C 3.216 24.128 2.6 24.168 2.04 24.168Z"/>
</defs>
</svg>
